<?xml version="1.0" encoding="UTF-8"?>
<svg id="Layer_1" data-name="Layer 1" xmlns="http://www.w3.org/2000/svg" width="327.19" height="162.74" viewBox="0 0 327.19 162.74">
  <path d="M56.72,81.5h269.47" fill="none" stroke="#000" stroke-linecap="round" stroke-linejoin="round" stroke-width="2"/>
  <path d="M83.67,50.56c49.58-.53,99.32-.01,148.96-.19" fill="none" stroke="#000" stroke-linecap="round" stroke-linejoin="round" stroke-width="2"/>
  <path d="M83.67,112.44c44.57.04,89.42.99,133.99-.37" fill="none" stroke="#000" stroke-linecap="round" stroke-linejoin="round" stroke-width="2"/>
  <path d="M94.89,1.06c-5.14-.63-7.67,3.56-10.79,6.26-13.26,11.46-26.5,22.94-39.67,34.5-13.46,11.46-26.56,23.55-40.06,34.85-4.3,4.25-4.54,5.38-.36,9.27,25.43,22.29,50.98,44.45,76.61,66.5,4.8,2.77,8.06,10.55,14.28,9.12" fill="none" stroke="#000" stroke-linecap="round" stroke-linejoin="round" stroke-width="2"/>
  <path d="M246.85,112.44c11.48.43,22.96.07,34.43.19" fill="none" stroke="#000" stroke-linecap="round" stroke-linejoin="round" stroke-width="2"/>
</svg>