<svg xmlns="http://www.w3.org/2000/svg" width="551.4" height="793.55" viewBox="0 0 551.4 793.55">
  <g id="Layer_2" data-name="Layer 2">
    <g id="left_leg" data-name="left leg">
      <path d="M288.51,408.1c-1.29-6.77.13-12.29-7.49-18.09-29.83-20.84-58.63-11-75.88,19C157.84,481.2,119.72,558.92,68,628.17,49.62,666.4-31.11,723.48,18.26,760.66c8,7.11,12.29,11.05,19.51,20.65,4.07,8.82,57.39,7.08,47.63-9.15-66.58-38.74,1.73-133.53,50.39-158,58.37-16.76,93.05-55.49,122.63-105.77,11.62-19.55,21.89-57,30.41-80.49C288.64,420.61,289.88,415.27,288.51,408.1Zm-43.26,93.1C207.31,606,111.78,581,65.84,669.56,49,703.91,31.07,753,73.72,777.85l-2.4,2.84c-21.85-5-36.56-22.7-53.21-36.41C.77,727.63,26.63,708.14,34.66,693c63.9-83,114.9-169.25,166.77-260.65,6.62-11.74,22.25-29.63,24.29-32.11,12.9-15.75,35.08-18.23,49.3,9.81C279,437.89,244.69,500.68,245.25,501.2Z" fill="none" stroke="#010101" stroke-miterlimit="10" stroke-width="5"/>
    </g>
    <g id="right_leg" data-name="right leg">
      <path d="M422.77,677.66c-22.17-55.2-49.18-108.81-73.85-163-17-34.46-53-111.18-60.77-116.68-29.83-20.85-58.63-11-75.88,19-3.11,11.26-3.11,17.46-3.71,23.29,8,30.33,27,48.1,46.84,66.49.51.31,12.41,10.59,13,11.06a226.67,226.67,0,0,0,39.34,24.06C323,549.29,332.5,554.47,338,558c1.11.71,2.7,2.62,3.46,3.1-.06-.47-2.73-11.23-2.94-11.74-2.3-5.56-8.87-7.39-18.09-14.7-22.67-18-57.16-38.95-57.36-38.21C177,447.37,250,354.52,282.15,418c.34,2.37,49.88,98.13,59.13,142.19,10.44,49.74,22.48,98.61,66.89,132.49C451.63,755.6,454.5,841,545.43,754.1,569.58,707.53,461.09,779.45,422.77,677.66ZM350.52,550.05C370,590.8,392.69,630.1,407.1,673.19,373.31,639,353,598.6,350.52,550.05ZM440,726.15c33.72,20.06,57.42,25.28,97,21.3C495.51,792.73,456,785.8,440,726.15Z" fill="none" stroke="#010101" stroke-miterlimit="10" stroke-width="5"/>
    </g>
    <g id="torso">
      <path d="M292.92,414.12a142.62,142.62,0,0,1-6.73-97.49c.3-1.15-.46-3.47-1-4.93-3.22-9.54-1.9-11.15-2.24-12.11s-1.39-6.91-1.39-7.18c-7.49-43.88-5.1-203.5-81.56-155-12.37,12.37-17.79,28.38-20.52,45.17a46.88,46.88,0,0,1,7.11-.17c1.42-.06,2.79-.16,4.15-.19,1.63-31.14,34.51-65.1,55.32-26.22,18.76,42.68,21,90.59,23.42,136.91a38.63,38.63,0,0,1-.34,9.25,37.88,37.88,0,0,1-2.46,8.71c7.16,12.11,9.54,30.62,5.3,68.77-3.8,12.1,2.13,18.08,1.18,28A142.08,142.08,0,0,1,292.92,414.12Z" fill="none" stroke="#010101" stroke-miterlimit="10" stroke-width="5"/>
    </g>
    <g id="right_hand" data-name="right hand">
      <path d="M426.34,330.55c-33.09-30.87-87-38.91-130.08-44.35L295,289.63C323.79,309,414.39,308.2,417.64,346.91c-38.6.74-71.08-25.85-107.31-37.05-2.74-.73-6.41-1.81-10.67-3.34-5.21-1.87-7.82-2.8-10.39-4.28-5.32-3.06-6.06-5.18-12-8.3a51.69,51.69,0,0,0-5.79-2.52c-39.15-16.91-64.4-52.94-77.7-92.61a38,38,0,0,1-2.92-17.35c-1.92.08-3.83.16-5.74.21a10.85,10.85,0,0,1-1.62.17c-1.23,0-2.52,0-3.8-.05A45.83,45.83,0,0,0,178,197.12c.33,5.3,9.55,24,10.78,25.57l.86,1.26a345.91,345.91,0,0,0,36.5,48.32c14.74,16.29,24.42,26.41,39.16,33.41,8.77,4.17,26.39,10.52,33.77,12.06.68.14,4,.8,8.3,2.07,3.25,1,5.71,1.86,7.79,2.64,9.78,3.64,15.47,6.09,15.47,6.09,13.24,5.69,25.75,11.6,25.75,11.6,26.91,12.71,26.37,13.16,32.37,14.89,12.37,3.56,21.67,3.66,30,.87,7.63-2.57,9.71-6,10.29-7C433.29,341.1,426.84,331.29,426.34,330.55Z" fill="none" stroke="#010101" stroke-miterlimit="10" stroke-width="5"/>
    </g>
    <g id="left_hand" data-name="left hand">
      <path d="M189,223c-5.47,27.94-5.95,56.18-19.65,81.71C151.09,330,115.29,445.23,84.22,437.23,72,410.17,107,288.33,131.49,268.94c-14.25,50.94-36.1,99-37.11,154,36.32-62.86,81-129.44,82.49-204.51.55-11.59.93-23.8,2.64-35.65,3.78.13,7.51.2,11.26,0a37.38,37.38,0,0,0,3,16C195.52,204.15,189.54,220.52,189,223Z" fill="none" stroke="#010101" stroke-miterlimit="10" stroke-width="5"/>
    </g>
    <g id="head">
      <path id="Head-2" data-name="Head" d="M228.2,2.5c28.72-.33,52.78,23.79,52.7,52.83C280.82,85,257.66,108,228,107.82c-28.25-.21-51.62-23.58-51.84-51.86C176,26.31,198.81,2.84,228.2,2.5Zm41.28,52.84c-.14-23.42-18.12-41.73-40.92-41.67A41.65,41.65,0,0,0,187,55c-.07,22.34,19,41.51,41.41,41.66C251.66,96.77,269.61,78.72,269.48,55.34Z" fill="none" stroke="#010101" stroke-miterlimit="10" stroke-width="5"/>
    </g>
  </g>
</svg>
