<svg xmlns="http://www.w3.org/2000/svg" width="159.48" height="119.5" viewBox="0 0 159.48 119.5">
  <defs>
    <style>
      .cls-1 {
        fill: none;
        stroke: #000;
        stroke-miterlimit: 10;
        stroke-width: 0.25px;
      }
    </style>
  </defs>
  <g id="Layer_2" data-name="Layer 2">
    <g id="Azadi">
      <g id="detail_azadi" data-name="detail azadi">
        <g>
          <path class="cls-1" d="M65.08,119.37c9.11-.16,19.45.11,28.48-.05C99.94,53.38,58.57,54.08,65.08,119.37Z"/>
          <path class="cls-1" d="M70.71,50.59c2.69-5,4.91-9.47,8.83-13,4.17,4.06,6.59,8.87,9.2,13.62C86.39,34.65,86.85,18.33,86.19,1.8H72.77C72.74,18.14,72.61,34.24,70.71,50.59Z"/>
          <path class="cls-1" d="M.28,114.2c4.28.46,7.93,1.87,11-1.92,14.37-15.7,29.52-30.74,43.15-47.1L54,64.83C36.35,81.44,17.73,97.21.28,114.2Z"/>
          <path class="cls-1" d="M58.22,66.51l-.47-.14c-12,17.08-25.81,32.72-38.27,49.5,4-.15,7.92,2.48,10.1-1.71C39,98.21,49.61,82.92,58.22,66.51Z"/>
          <path class="cls-1" d="M149.92,114.61l.26-.7C134.51,97.27,118,81.46,102.5,64.62c7,11.33,16.44,20.9,24.66,31.35q7.25,8.76,14.57,17.45C143.71,116.32,147.07,114.8,149.92,114.61Z"/>
          <path class="cls-1" d="M29.67,116.59c3.45,0,7.21,2.4,8.56-1.6,7.84-16.63,15.82-33.28,22.59-50.36C51.69,82.49,39.93,98.74,29.67,116.59Z"/>
          <path class="cls-1" d="M141.21,115.09c-13.44-17.47-28.72-33.67-41.46-51.56C108.36,81,121.06,95.9,131.82,112,135,116.72,135.93,117.17,141.21,115.09Z"/>
          <path class="cls-1" d="M56.33,65.88C41.59,82.55,25.87,98.17,10.49,115c3.5,0,6.55,1.84,8.81-1.16C31.51,97.78,44.93,82.55,56.33,65.88Z"/>
          <path class="cls-1" d="M62.85,64.14l-.4-.13c-6.56,18.33-16,35.29-23.66,53.17,3.59.09,7.39,2.46,8.22-2.29C52.26,98,57.94,81.16,62.85,64.14Z"/>
          <path class="cls-1" d="M55.72,118.32c3-.54,8.24,1.91,8.55-2,.39-14.94,0-31.52.86-46.13C62.17,85.34,59,101.52,55.72,118.32Z"/>
          <path class="cls-1" d="M108.33,68.72c10.06,10.8,20.52,21.24,30.74,31.9q5.9,6.07,11.8,12.13c2.07,2.8,5,.91,8.28.78C141.78,98.88,126.37,82.58,108.33,68.72Z"/>
          <path class="cls-1" d="M64.07,66.08l-.27,0c-5.36,17.12-10.71,34.24-16.15,51.64,2.57-.3,6.47,1.9,7.07-1.61C57.87,99.47,61.82,82.92,64.07,66.08Z"/>
          <path class="cls-1" d="M125.09,116.62c-9.51-17.78-21.16-34.3-28.75-53,4.92,18,13.58,34.48,21.13,51.44C118.17,118.39,122.39,117.44,125.09,116.62Z"/>
          <path class="cls-1" d="M99.91,68.23c7.09,16.17,16.78,31.05,25.61,46.3,1.32,3,4.65,2.7,7.38,1.43C122.27,99.7,110,84.71,99.91,68.23Z"/>
          <path class="cls-1" d="M103.54,117.84c-3.11-14.29-6.18-28.34-9.09-41.73.12,13.41.26,27.46.4,41.65A16,16,0,0,0,103.54,117.84Z"/>
          <path class="cls-1" d="M95.23,66c4.12,16.88,9.66,33.38,15.43,49.76.49,2.75,4.14,2.38,6.24,1.2C109.74,100,100.74,83.74,95.23,66Z"/>
          <path class="cls-1" d="M109.72,117.69,95.23,72.58c2.48,14.14,6.08,28,9,42.12C104.73,118.66,106.2,118.16,109.72,117.69Z"/>
          <path class="cls-1" d="M67.79.28c-1,19.24,2.55,39.06-8.53,56.09,2.88-.88,2.52-5.15,6.08-4.91,5.74-14.93,3-31.31,3.76-46.95C69.11,3.25,69.44,1.83,67.79.28Z"/>
          <path class="cls-1" d="M100.9,56.86c-12.61-16.92-8.33-36.74-9.64-56L90.57.9c.07,16.5-2.62,34.75,3.31,50.38C97.24,52.13,97.68,55.74,100.9,56.86Z"/>
          <path class="cls-1" d="M57.35,54.59c1.27-1,2.43-25.81.94-44.7C55.71,23.88,58.18,39.91,57.35,54.59Z"/>
          <path class="cls-1" d="M88.37,1.24c-1.14,2.5-.71,29.85.61,38.33C89.5,21.72,89.2,3,88.37,1.24Z"/>
          <path class="cls-1" d="M100.56,53.9l.85.05c-.8-14.17,1.55-30.66-.85-43.74Z"/>
          <path class="cls-1" d="M71.4,1.32l-1,0V39.8C71.62,27.56,71.65,14.44,71.4,1.32Z"/>
          <path class="cls-1" d="M79.55,39.13l-3.82,5.51,3.92,3.25,3.83-3.38C82.16,42.69,81,41.11,79.55,39.13Z"/>
          <path class="cls-1" d="M60.42,10.56l-.47,0c-.3,13.23-.35,26.57.19,39.77l.28,0Z"/>
          <path class="cls-1" d="M98.6,50.19h.29V10.75H98.6Z"/>
          <path class="cls-1" d="M62,46.59h.21V10.87H62Z"/>
          <path class="cls-1" d="M97.18,10.92,97,11V46.64h.19Z"/>
          <path class="cls-1" d="M84.21,45.7,80.65,49l2.68,3,3.35-1.9Z"/>
          <path class="cls-1" d="M72.57,50.18,76.06,52c.91-1.14,1.65-2.09,2.56-3.24l-3.54-2.71C74.19,47.52,73.48,48.7,72.57,50.18Z"/>
          <path class="cls-1" d="M94.29,8.68l-.12,0V36.57h.12Z"/>
          <path class="cls-1" d="M87.15,51.31,84.4,53.17c1.68,3.37,1.68,3.37,4.47,2.39Z"/>
          <path class="cls-1" d="M74.84,53.33c-2.87-1.84-3.54-1.42-4,2.23C73.29,56.7,73.29,56.7,74.84,53.33Z"/>
          <path class="cls-1" d="M79.74,54.83,82,52.75l-2.51-2.69-2.2,2.8Z"/>
          <path class="cls-1" d="M78.15,55.77c-1.91-1.79-2.06-1.74-3.24,1C76.68,58,76.68,58,78.15,55.77Z"/>
          <path class="cls-1" d="M72.73,57.91c-3.14-.36-3.27-.23-3.44,3.32Z"/>
          <path class="cls-1" d="M81.42,55.25c1.33,2.57,1.33,2.57,3.57,1.58C83.75,55.67,83.21,53.77,81.42,55.25Z"/>
          <path class="cls-1" d="M87.25,58c.94,2,.94,2,2.55,2.54C89.83,57.72,89.64,57.51,87.25,58Z"/>
          <path class="cls-1" d="M71.87,61.8c2.21-.17,2.76-1.31,3.52-2.75C72.88,58.27,73.13,60,71.87,61.8Z"/>
          <path class="cls-1" d="M81.45,58.61l-1.77-1.89C79,57.46,78.55,58,78,58.57,79.18,59.85,80.19,59.89,81.45,58.61Z"/>
          <ellipse class="cls-1" cx="63.83" cy="35.44" rx="0.07" ry="6.67"/>
          <path class="cls-1" d="M83.88,59.09l2.68,3.12C86.41,59.13,86.36,59.07,83.88,59.09Z"/>
          <path class="cls-1" d="M81.22,60.79c.77,1.07,1.35,1.89,2.64,1.45C83.19,60,83.19,60,81.22,60.79Z"/>
          <path class="cls-1" d="M91.05,52c.24,1.74.47,3.48.75,5.54C93.22,55.33,91.8,53.72,91.05,52Z"/>
          <path class="cls-1" d="M66.58,56l1,.11.53-5-.33,0C67.39,52.68,67,54.33,66.58,56Z"/>
          <path class="cls-1" d="M75.69,62c1.57-.08,1.57-.08,2.13-1.54C76.4,60.45,76.4,60.45,75.69,62Z"/>
          <path class="cls-1" d="M70.15,62.76l-.8-.51-1.48,2.86.65.36C69.07,64.57,69.61,63.67,70.15,62.76Z"/>
          <path class="cls-1" d="M85,63.54l-.55.52L86.1,65.9l.51-.42C86.25,64.7,86.11,63.75,85,63.54Z"/>
          <path class="cls-1" d="M90.69,65.85c0-2.54,0-2.54-1.74-3.42C89.54,63.6,90,64.46,90.69,65.85Z"/>
          <path class="cls-1" d="M82.19,64.22c-.19.26-.38.51-.56.77l1.86,1.12.38-.56Z"/>
          <path class="cls-1" d="M78.44,64.68c-1.49-.43-2-.06-2.52,1.54Z"/>
          <path class="cls-1" d="M72.89,65.3l.46.45c.55-.57,1.61-.76,1.34-2.57Z"/>
          <path class="cls-1" d="M65,35.38h.07V33.1H65Z"/>
          <path class="cls-1" d="M79.86,62l-.77.94c.62.67,1,.64,1.57-.08Z"/>
          <path class="cls-1" d="M72,63.58c-.79-.08-1.4,1.12-1,1.72C71.47,64.7,72,64.5,72,63.58Z"/>
          <path class="cls-1" d="M88,63.61l-.53.2c.26.49.52,1,.79,1.47l.35-.18C88.36,64.6,88.15,64.11,88,63.61Z"/>
          <path class="cls-1" d="M104.79,64.1c.17,1,.21.86.92,1Z"/>
          <path class="cls-1" d="M80.05,65.32l-.74,1C80.18,67,80.74,66.19,80.05,65.32Z"/>
          <path class="cls-1" d="M70.71,50.59c1.9-16.35,2-32.46,2.06-48.79H86.19c.66,16.53.2,32.85,2.55,49.38-2.61-4.75-5-9.56-9.2-13.62C75.62,41.12,73.4,45.61,70.71,50.59Z"/>
          <path class="cls-1" d="M74.39,4.8a14.47,14.47,0,0,0,0,8.76A15.28,15.28,0,0,0,74.39,4.8Z"/>
          <path class="cls-1" d="M82.38,13.78c1.49-1.69,1.52-7.39,0-9.26Z"/>
          <path class="cls-1" d="M76.18,4.86a24.49,24.49,0,0,0,0,9.36C77.31,11.46,77.33,7.08,76.18,4.86Z"/>
          <path class="cls-1" d="M78.23,13.57c1.46-2.84,1.29-7.1,0-9Z"/>
          <path class="cls-1" d="M81.06,4.58c-1.58,1.72-1.55,6.9,0,9.06Z"/>
          <path class="cls-1" d="M84.56,13.34a12.65,12.65,0,0,0,0-8.89Z"/>
          <path class="cls-1" d="M.28,114.2C17.73,97.21,36.35,81.44,54,64.83l.45.35c-13.63,16.36-28.78,31.4-43.15,47.1C8.21,116.07,4.56,114.66.28,114.2Z"/>
          <path class="cls-1" d="M58.22,66.51C49.61,82.92,39,98.21,29.58,114.16c-2.18,4.19-6.1,1.56-10.1,1.71,12.46-16.78,26.23-32.42,38.27-49.5Z"/>
          <path class="cls-1" d="M149.92,114.61c-2.85.19-6.2,1.71-8.19-1.19q-7.35-8.67-14.57-17.45c-8.22-10.45-17.64-20-24.66-31.35,15.48,16.84,32,32.65,47.68,49.29Z"/>
          <path class="cls-1" d="M29.67,116.59c10.26-17.85,22-34.1,31.15-52C54.05,81.71,46.07,98.36,38.23,115,36.88,119,33.12,116.59,29.67,116.59Z"/>
          <path class="cls-1" d="M141.21,115.09c-5.28,2.08-6.25,1.63-9.39-3C121.06,95.9,108.36,81,99.75,63.53,112.49,81.42,127.77,97.62,141.21,115.09Z"/>
          <path class="cls-1" d="M56.33,65.88c-11.4,16.67-24.82,31.9-37,48C17,116.87,14,115,10.49,115,25.87,98.17,41.59,82.55,56.33,65.88Z"/>
          <path class="cls-1" d="M62.85,64.14C57.94,81.16,52.26,98,47,114.89c-.84,4.76-4.64,2.38-8.23,2.29C46.43,99.3,55.89,82.34,62.45,64Z"/>
          <path class="cls-1" d="M55.72,118.32c3.29-16.8,6.45-33,9.41-48.14-.91,14.62-.47,31.18-.86,46.13C64,120.25,58.69,117.77,55.72,118.32Z"/>
          <path class="cls-1" d="M108.33,68.72c18,13.86,33.45,30.16,50.82,44.81-3.26.14-6.21,2-8.28-.78q-5.9-6.06-11.8-12.13C128.85,90,118.39,79.52,108.33,68.72Z"/>
          <path class="cls-1" d="M64.07,66.08c-2.25,16.84-6.2,33.39-9.35,50.07-.6,3.53-4.49,1.3-7.07,1.61,5.44-17.4,10.79-34.52,16.15-51.64Z"/>
          <path class="cls-1" d="M125.09,116.62c-2.69.83-6.92,1.76-7.62-1.6-7.55-17-16.21-33.47-21.13-51.44C103.93,82.32,115.58,98.84,125.09,116.62Z"/>
          <path class="cls-1" d="M99.91,68.23C110,84.71,122.27,99.7,132.9,116c-2.72,1.28-6.06,1.6-7.38-1.43C116.69,99.28,107,84.4,99.91,68.23Z"/>
          <path class="cls-1" d="M103.54,117.84a16,16,0,0,1-8.69-.08c-.14-14.19-.28-28.24-.4-41.65C97.36,89.5,100.43,103.55,103.54,117.84Z"/>
          <path class="cls-1" d="M95.23,66c5.51,17.73,14.51,33.94,21.67,51-2.09,1.2-5.76,1.54-6.24-1.2C104.89,99.39,99.35,82.89,95.23,66Z"/>
          <path class="cls-1" d="M109.72,117.69c-3.52.46-5,1-5.51-3-2.9-14.08-6.5-28-9-42.12Z"/>
          <path class="cls-1" d="M67.79.28c1.65,1.55,1.32,3,1.31,4.23-.77,15.64,2,32-3.76,47-3.56-.24-3.2,4-6.08,4.91C70.34,39.34,66.82,19.52,67.79.28Z"/>
          <path class="cls-1" d="M100.9,56.86c-3.22-1.12-3.66-4.73-7-5.58C88,35.65,90.64,17.4,90.57.9l.69-.05C92.57,20.12,88.29,39.94,100.9,56.86Z"/>
          <path class="cls-1" d="M57.35,54.59c.83-14.68-1.64-30.71.94-44.7C59.77,28.85,58.62,53.5,57.35,54.59Z"/>
          <path class="cls-1" d="M88.37,1.24C89.2,3,89.5,21.72,89,39.57,87.66,31.09,87.23,3.74,88.37,1.24Z"/>
          <path class="cls-1" d="M100.56,53.9V10.21c2.4,13.08,0,29.56.85,43.74Z"/>
          <path class="cls-1" d="M71.4,1.32c.25,13.12.22,26.24-1,38.48V1.3Z"/>
          <path class="cls-1" d="M79.55,39.13c1.45,2,2.61,3.56,3.93,5.38l-3.83,3.38-3.92-3.25Z"/>
          <path class="cls-1" d="M60.42,10.56v39.7l-.28,0c-.54-13.2-.49-26.54-.19-39.77Z"/>
          <path class="cls-1" d="M98.6,50.19V10.75h.29V50.18Z"/>
          <path class="cls-1" d="M62,46.59V10.87h.21V46.59Z"/>
          <path class="cls-1" d="M97.18,10.92V46.64H97V11Z"/>
          <path class="cls-1" d="M84.21,45.7l2.47,4.38L83.33,52l-2.68-3Z"/>
          <path class="cls-1" d="M72.57,50.18c.91-1.48,1.62-2.66,2.51-4.1l3.54,2.71c-.91,1.15-1.65,2.1-2.56,3.24Z"/>
          <path class="cls-1" d="M94.29,8.68V36.57h-.12V8.63Z"/>
          <path class="cls-1" d="M87.15,51.31l1.72,4.25c-2.79,1-2.79,1-4.47-2.39Z"/>
          <path class="cls-1" d="M74.84,53.33c-1.55,3.37-1.55,3.37-4,2.23C71.3,51.91,72,51.49,74.84,53.33Z"/>
          <path class="cls-1" d="M79.74,54.83l-2.42-2,2.2-2.8L82,52.75Z"/>
          <path class="cls-1" d="M78.15,55.77c-1.47,2.22-1.47,2.22-3.24,1C76.09,54,76.24,54,78.15,55.77Z"/>
          <path class="cls-1" d="M72.73,57.91l-3.44,3.32C69.46,57.68,69.59,57.55,72.73,57.91Z"/>
          <path class="cls-1" d="M81.42,55.25c1.79-1.48,2.33.42,3.57,1.58C82.75,57.82,82.75,57.82,81.42,55.25Z"/>
          <path class="cls-1" d="M87.25,58c2.39-.45,2.58-.24,2.55,2.54C88.19,59.93,88.19,59.93,87.25,58Z"/>
          <path class="cls-1" d="M71.87,61.8c1.26-1.85,1-3.53,3.52-2.75C74.63,60.49,74.08,61.63,71.87,61.8Z"/>
          <path class="cls-1" d="M81.45,58.61c-1.26,1.28-2.27,1.24-3.42,0,.52-.58,1-1.11,1.65-1.85Z"/>
          <ellipse class="cls-1" cx="63.83" cy="35.44" rx="0.07" ry="6.67"/>
          <path class="cls-1" d="M83.88,59.09c2.48,0,2.53,0,2.68,3.12Z"/>
          <path class="cls-1" d="M81.22,60.79c2-.76,2-.76,2.64,1.45C82.57,62.68,82,61.86,81.22,60.79Z"/>
          <path class="cls-1" d="M91.05,52c.75,1.68,2.17,3.29.75,5.54C91.52,55.52,91.29,53.78,91.05,52Z"/>
          <path class="cls-1" d="M66.58,56c.4-1.64.81-3.29,1.21-4.93l.33,0-.53,5Z"/>
          <path class="cls-1" d="M75.69,62c.71-1.59.71-1.59,2.13-1.54C77.26,62,77.26,62,75.69,62Z"/>
          <path class="cls-1" d="M70.15,62.76c-.54.91-1.08,1.81-1.63,2.71l-.65-.36,1.48-2.86Z"/>
          <path class="cls-1" d="M85,63.54c1.13.21,1.27,1.16,1.63,1.94l-.51.42-1.67-1.84Z"/>
          <path class="cls-1" d="M90.69,65.85C90,64.46,89.54,63.6,89,62.43,90.69,63.31,90.69,63.31,90.69,65.85Z"/>
          <path class="cls-1" d="M82.19,64.22l1.68,1.33-.38.56L81.63,65C81.81,64.73,82,64.48,82.19,64.22Z"/>
          <path class="cls-1" d="M78.44,64.68l-2.52,1.54C76.43,64.62,77,64.25,78.44,64.68Z"/>
          <path class="cls-1" d="M72.89,65.3l1.8-2.12c.27,1.81-.79,2-1.34,2.57Z"/>
          <path class="cls-1" d="M65,35.38V33.1h.07v2.29Z"/>
          <path class="cls-1" d="M79.86,62l.8.86c-.55.72-1,.74-1.57.08Z"/>
          <path class="cls-1" d="M72,63.58c.05.92-.52,1.13-1,1.72C70.59,64.7,71.2,63.5,72,63.58Z"/>
          <path class="cls-1" d="M88,63.61c.2.5.41,1,.61,1.49l-.35.18c-.27-.49-.53-1-.79-1.47Z"/>
          <path class="cls-1" d="M104.79,64.1l.92,1C105,65,105,65.07,104.79,64.1Z"/>
          <path class="cls-1" d="M80.05,65.32c.69.87.13,1.66-.74,1Z"/>
          <path class="cls-1" d="M74.39,4.8a15.28,15.28,0,0,1,0,8.76A14.47,14.47,0,0,1,74.39,4.8Z"/>
          <path class="cls-1" d="M82.38,13.78V4.52C83.9,6.39,83.87,12.09,82.38,13.78Z"/>
          <path class="cls-1" d="M76.18,4.86c1.15,2.22,1.13,6.6,0,9.36A24.49,24.49,0,0,1,76.18,4.86Z"/>
          <path class="cls-1" d="M78.23,13.57v-9C79.52,6.47,79.69,10.73,78.23,13.57Z"/>
          <path class="cls-1" d="M81.06,4.58v9.06C79.51,11.48,79.48,6.3,81.06,4.58Z"/>
          <path class="cls-1" d="M84.56,13.34V4.45A12.65,12.65,0,0,1,84.56,13.34Z"/>
        </g>
      </g>
    </g>
  </g>
</svg>
