<svg xmlns="http://www.w3.org/2000/svg" width="1027.23" height="124.41" viewBox="0 0 1027.23 124.41">
  <defs>
    <style>
      .cls-1 {
        fill: none;
        stroke: #000;
        stroke-miterlimit: 10;
        stroke-width: 3px;
      }
    </style>
  </defs>
  <g id="Layer_2" data-name="Layer 2">
    <g id="Azadi">
      <g id="main_azadi" data-name="main azadi">
        <g>
          <path class="cls-1" d="M853.4,122.19c7-61,33-61,41-1C894.59,122.6,862.51,122,853.4,122.19Z"/>
          <path id="Main_azadi-2" data-name="Main azadi" class="cls-1" d="M1.5,117.64c212,.4,424.05-1.46,636-.82,32.6,1.69,65.15-.2,97.71-1.38,17.85.2,35.81.15,53.61,1.58,1.94.2,3.81.4,5.47-1.14,14.65-13.53,29.41-26.94,44-40.56C842.64,70,850.17,65.26,850.68,58c0-15.36-.4-30.69-.08-46,6.53-.85,11.12-2.36,10.61-9.91a53.09,53.09,0,0,0,25.94-.07c-.57,6.92,4.06,9.13,10.11,9.87.47,15.13,0,30.3.08,45.45a8.62,8.62,0,0,0,2,5.61c16,19.6,36.07,35.42,54.74,52.4,5.18,2.8,12,0,17.72.39,18-1.16,36-1.16,53.94-.94v1.17c-25.36,1.14-50.8-.23-76.07,2.79-21.74,2.54-43.58,4.21-65.48,3.89-50.3,2.08-99.17-6.25-147.45-5.4-245,3.1-490.17.8-735.23,2.22Z"/>
        </g>
        <path class="cls-1" d="M864.81,2.68s.65,33-.62,40.36S848.9,63.69,848.9,63.69"/>
        <path class="cls-1" d="M883.31,2.6s-.65,33,.61,40.35S900.4,64.19,900.4,64.19"/>
      </g>
    </g>
  </g>
</svg>
