<?xml version="1.0" encoding="UTF-8"?>
<svg id="Layer_2" data-name="Layer 2" xmlns="http://www.w3.org/2000/svg" width="841.22" height="90.96" viewBox="0 0 841.22 90.96">
  <g id="Layer_11_Image" data-name="Layer 11 Image">
    <g id="main">
      <path d="M841.2,87.82c-1.8-.05-3.61.07-5.41,0-5.72-.19-11.53-.45-17.26-.74-10.22-.51-20.52-.44-30.71.02-3.7.17-7.43.34-11.04.48-17.82.7-35.6,1.16-53.51.7-18.36-.47-36.83-.97-55.18-.7-60.15.88-120.45.36-180.69.46-47.67.08-95.55.43-143.22.5-42.67.06-85.35-.06-128.01,0-.17-.69.43-.42.89-.67,3.85-2.07,7.98-5.2,10.98-8.23,7.6-7.68,12.56-18.75,13.33-29.61.31-4.39-.14-9.76-1.15-13.98-.72-2.99-1.48-5.74-2.74-8.53-3.82-8.43-10.54-15.51-18.19-20.44l-4.67-2.53c-1.11,1.18.69,1.54,1.4,1.95,4.45,2.63,9.18,6.08,12.39,10.16.68.86,1.16,1.86,1.89,2.67.15.1.28.23.4.36.14.09.25.2.36.31.39.16.71.39.97.67.07.01.14.02.21.06.39.2,3.04,4.73,3.4,5.47.14.29.39.99.63,1.67.29.33.51.71.65,1.13.14.2.26.41.36.63,0,0,0,0,0,0,0,0,.02.05.03.08.03.06.05.13.07.19.21.57.64,1.9.74,2.21,1.34,4.2,2.01,9.17,2.28,13.56.02.34.05,1.05.02,1.65.06.27.1.55.09.87-.04,1.6-.19,3.37-.56,5.06,0,.45-.08.9-.24,1.32-.04.28-.11.55-.2.81-.03.16-.07.32-.12.48-.01.42-.07.84-.22,1.22-.1.67-.33,1.33-.5,1.99-.56,2.12-1.41,4.3-2.29,6.34-4.26,9.85-12.39,17.84-22.06,22.58-.71.35-1.3.81-2.22.78-.13.92-.03,1,.84,1.19,17.03-.19,34.08.26,51.11.01,13.6-.2,27.4.34,41.03-.24,1.98-.08,4.24-.63,6.24-.02,77.47-.58,154.89.05,232.25-.46,18.84-.12,37.85.15,56.6-.26,11.33-.25,22.56.24,33.85.02,31.1-.6,62.37-.54,93.31.48,16.5.54,33.05,0,49.45-.96,13.48-.79,27.24-.58,40.77-.24,7.13.18,14.27.18,21.35.72.39.03,2.26-.09,2.3-.37.04-.26-.04-.56,0-.83Z"/>
      <path d="M212.46,3.82c-.61-.97-1.32-.75-2.12-1-.29-.09-.53-.45-.87-.57-8.86-3.05-20.64-2.94-29.53,0-17.26,5.72-29.54,21.21-31.66,39.14-.65,5.54-.39,10.23.9,15.64,1.56,6.5,3.42,11.05,7.22,16.54,1.24,1.79,2.82,3.88,4.34,5.49,2.89,3.07,7.35,6.54,11.05,8.63.41.23,1.96.41,1.06,1.07-10.55.08-21.11-.06-31.67,0-38.14.22-76.3.53-114.45.96-7.94.09-16.31-.03-24.21.5-.83.06-1.7-.06-2.53,0v.72c3.64-.05,7.29.07,10.93,0,44.53-.71,89.33-.96,133.86-1.22,10.63-.06,21.27.08,31.9-.01,1.05-.91-.38-.98-.89-1.23-11.36-5.51-20.72-15.34-24.6-27.48-1.33-4.17-2.5-11.49-2.22-15.8.32-4.81,1.19-9.35,2.78-13.78,6.02-16.88,22-29.49,40.05-30.26,5.46-.23,9.76.31,14.9,1.58.09,0,.17.03.26.04.03,0,.05,0,.08,0,.27,0,.53.03.77.08.09.01.19.01.28.03,1.02.02,1.75.46,2.25,1.07.12.07.23.15.33.24.13.08.27.16.38.25.05.03.12.05.17.09,0,0,.02,0,.03,0,.8,0,1.61-.12,1.22-.74Z"/>
    </g>
  </g>
</svg>