<?xml version="1.0" encoding="UTF-8"?>
<svg id="Layer_2" data-name="Layer 2" xmlns="http://www.w3.org/2000/svg" width="89.94" height="84.99" viewBox="0 0 89.94 84.99">
  <g id="Layer_11_Image" data-name="Layer 11 Image">
    <path d="M87.36,53.94c.09.73-.09,1.42-.29,2.1.22-.23.48-.43.8-.56.06-.13.12-.27.21-.39-.12-.86.1-1.78.7-2.41-.29-.73-.3-1.57,0-2.3-.2-.7-.16-1.47.14-2.13-.14-.68-.07-1.41.25-2.03-.25-.04-.5-.11-.72-.23-.14.34-1.18.81-1.58,1.33-.8,1.03-.92,3.14-2.71,2.23-.86-.44-1.57-2.42-1.26-3.33.04-.11.59-1.12.64-1.16.18-.13,1.13.02,1.53-.03,1.39-.19,1.73-1.8,1.56-2.99-.19-1.36-2.29-2.61-2.4-3.36.02-1-.02-1.84-.25-2.89.04-1.05.89-1.81.98-2.4.1-.69.12-5.21-.04-5.73-.1-.32-.55-.46-.65-.79-.52-1.79-1.49-3.01-2.67-4.53-.88-1.12-2.91-2.42-2.15-3.95.47-.04.91-.09,1.22.39.02-.12.04-.24.07-.36-.55-.58-1-1.29-1.23-2.06-.3.29-.76.4-1.14.62.03.04.06.07.09.11.22.78-.99,1.44-.92,1.85,3.34,4.82,9.28,9.6,5.37,15.98-.31,1.05.28,3.23.42,4.4.64,1.59,2.7,1.95,2.08,4.11-.17.6-1.29.29-1.91.49-.66.21-.88,1.04-1.67.85.34-1.11-2.84-4.72-3.47-5.53-.27-.22-1.14-.72-1.44-.72-.12,0-1.38.51-1.55.61-2.07,1.44-3.01,5.51-4.09,7.68.32,1.92,1.58,3.64,1.68,5.63-1-.08-1.79-.2-2.74.23-1.32-2.15-1.81-4.45-2.48-6.88-.12-.47-.18-1.2-.33-1.59-.05-.12-1.02-.92-1.16-1-1.27-.78-3.54-.88-4.38-2.46-2.09-1.78-3.24-.47-5.34-.78-.75-.11-.96-.64-1.49-.91-1.73-.88-3.83-.29-5.68-.8-.23-.07-1.5-1.98-2.07-2.25-2.74-1.02-5.52.81-1.98,2.82,1.24,1.61,1.79,4.6,4.45,3.5.49-.2.52-.75,1.24-.69.49.04.84.79,1.48.93.56.12,1.18,0,1.76.04.24,3.52-10.48,9.08-13.54,9.37-1.19-5.42-3.82-10.37-7.24-14.93-1.08-.76-2.19-.35-2.24.76-.07,1.72.56,3.23,1.37,4.73,1.66,3.47,2.28,7.71,5.75,9.73.99,1.63,2.57,3.39,4.73,3.06,1.88-.65,3.89-1.7,2.57,1.38-.26,7.14-7.79,6.44-10.31,11.05-.73,1.64.81,2.89,1.33,4.32.25.68.53,3.18.19,3.68-.29.36-.78.16-1.17.27-1.02.92-3.4.99-3,2.92.06.27.36.53.37.75.01.36-.52.94-.39,1.41.14.51,1.4.95.94,2.08-7.26-.06-8.43,1.05-13.68-4.92-5.44-5.77-3.66-4.15-3.87-11-.07-.23-.37-.44-.5-.7-1.07-2.26-3.96-5.69-4.26-7.98-.13-1.03.21-2.67-.05-3.55-.12-.4-1.66-2.16-2.04-2.28-11.45-1.33-4.32-1.01-7.17-11.07-1.91-6.63,2.46-8.35,6.13-12.6,1.49-1.27,3.72-1.38,5.58-1.86,1.14-.29,1.96-.96,3.29-.66.41,1.2-1.6,2.14-1.09,3.12,1.21,1.23,3.86,3.82,5.73,3.8,0,0,2.44-1.18,2.44-1.18.61.06,1.34,1.01,1.81,1.33.81.54,1.35.68,2.26.86,2.6.51,4.48,1.3,6.09-1.37.51-1.14,3.83-5.61.88-5.37-.73.1-.89,1.25-1.89.94-.68-.06-2.92-4.36-3.76-3.18-.48.73-.68,2.83-1.68,2.14-.26-.73-1.98-1.96-2.12-2.44-.17-.9-.12-2.67.2-3.57-.19-3.4-5.56-2.82-5.03.6-.86-.16-.95-1.02-1.59-1.41-1.55-.9-3.51.81-4.22,2.07-.57.51-2.03,1.57-2.75,1.69-2.84.54.1-2.65.76-3.32.61-.42,1.29-.33,1.81-.59.48-.25,2.05-1.69,2.4-2.16.98-1.3-.13-1.91.36-3.24.28-.74,2.04-1.72,2.33-2.59.22-.21.82-.36,1.02-.78.84-.01.08.56-.09.87-.47.85-.45.57-.87,1.04-.11.12-.85,1.47-.85,1.56.28,1.42,3.01.11,3.98.13,2.47-.24,4.17.05,6.52-1.16,1.04-.53,3.5-2.11,3.66-3.29.18-1.33-.54-1.75-1.8-1.56-.77.12-1,1.03-1.37,1.39-.75.64-1.76,1.25-2.81,1-.32-.32-.24-1.78.02-2.11.09-.11,1.94-.93,2.25-.99,2.69-.08,5.2-1.43,7.72-2.12,3.49-1.19-.24,2.84,4.94,2.07.84-.19,1.73-1.43,2.48-1.6.87-.2,1.38.25,2.12.22.32-.01,2.08-.29,2.28-.38,2.14-.98,1.06-1.96,1.47-3.33.31-1.05,4.07-.49,5.12-.63.72-.1,1.63-.61,2.42-.7.51-.06,3.03.27,2.39-.73-.63-1.03-1.4-.7-2.21-1.05-.45.33-.91.61-1.42.85-1.44,1.39-8.29-1.18-7.32,3.41-.24,2.09-4.17,1.09-5.56,1.4-1.24.27-2.06,2.47-3.74,1.37-.21-4.95-6.46-.21-9.07-.02-.85.19-1.99.17-2.73.39-1.93.46-3.4,3.01-2.03,4.7.45.46,1.88.4,1.57,1.43l-6.72.48c-.15-.9.66-1.33,1.01-1.99.63-1.19.83-2.84-1.03-2.23-1.39.68-2.58,2.13-3.71,3.24-.5.5-1.41,1.39-1.53,2.09.02.47,1.25,2.23-.21,2.54-.32.33-1.07,1.3-1.49,1.51-.44.22-.88.03-1.29.15-1.06.3-2.51,2.76-2.98,3.74-.13.26-.47.53-.51.7-.07.31.53,1.16.85,1.25.35.1,2.23.1,2.57,0,.13-.04,1.94-1.21,2.19-1.4,1.11-.87,1.94-2.66,3.58-2.41.14.53.96,1.01,1.06,1.36.35,1.19-.6,2.74,1.22,3.34.94.31,2.17-.5,2.17-1.45,0-.82-1.42-3.03-1.18-3.82.24-.81,2.47-.9,2.63.21-.17,4.13-.72,3.8,2.27,7.09.92,3.09,2.71-1.09,3.13-1.44.91.42,2.17,2.74,3.15,2.84.41.04.86-.54,1.28.16-.55.94-1.35,3.56-2.51,3.73-2,.16-4.05-.07-5.73-1.24-.5-.33-1.49-1.34-1.95-1.41-1.22-.19-1.38.73-2.45.91-2.01.42-2.5-1.43-4.1-1.92-.19-.18-.15-.76-.77-.67-.2-.85,1.69-1.65,1.41-2.71-1.59-3.35-6.48.63-9.17.36-.97.22-2.3,1.78-3.05,2.48-1.72,1.67-4.14,3.48-4.91,5.88-.12.23-.48.36-.56.64-.91,3.22.66,6.52.94,9.8-.04,2.03-.6,3.83-.13,5.89.09.18,1.03,1.06,1.25,1.15,1.54.63,3.78.42,5.42.82,3.22.78,1.53,4.23,2.2,6.2.94,2.46,3.31,4.97,4.4,7.36.58,1.68-.19,3.31-.13,4.94.08,2.06,1.39,3.2,2.59,4.6,1.52,1.79,3.59,4.15,5.39,5.65,2.82,2.34,4.83,1.53,8.17,1.67,1.43.34,3.59.82,3.9-1.12.21-1.36-.79-1.54-.67-2.58.03-.25.24-.5.24-.74,0-.42-.55-.51-.46-1.15.12-.8.47-.55.93-.76,1.53-.68,2.02-1.13,3.91-.8.26.05,2.2.9,2.33,1.03.58.54-.43,1.74-.49,2.64-.04.64.04,1.42.65,1.77,2.34,1.3,2.88-1.86,2.99-3.41.95-.87,1.6-3.1,1.38-4.33-.92-1.26-1.98.41-3.01,1.02-1.47.76-2.39.44-3.94.17-.64-.8-.34-1.8-.47-2.65-.22-1.35-.82-2.25-1.38-3.42-1-1.24-.54-1.66.42-2.84,3.82-3.05,7.35-2.58,9.32-8.19-.07-1.16.82-2.94.73-3.99-.39-1.72-1.74-1.5-3.16-1.07-.73.71-1.86.36-2.81.43-.19-1.39.41-.99,1.21-1.31,1.69-.67,3.93-1.64,5.44-2.48,1.92-1.15,10.61-6.62,6.38-8.89-1.56-.34-2.36.72-2.24-1.61.02-.35-.1-.42.36-.36,1.03.11,2.48.72,3.15,1.41,1.16.34,3.43-.21,4.73.07.79.62,1.6,1.61,2.46,2.1.77.43,2.67.89,3.21,1.35,1.26,1.9,1.08,4.51,2.03,6.61.3.73.93,1.59,1.21,2.39.95,1.04,2-.27,3.08.28.59.3.79,1.83,1.84.81.44-.42.18-1.32.23-1.92l-1.88-5.08v-.88c1.01-2.15,1.62-4.59,3.23-6.37,1.93-1.01,2.42.65,3.34,1.88,1.67,1.32,2.78,5.9,3.46,7.82.17,1.64-.53,1.32-.84,2.26-.26,1.55,1.79,3.32,1.82,5.05l1.38-.28,1.72-2.92.73-.15Z" fill="none" stroke="#000" stroke-miterlimit="10"/>
    <path d="M49.06,41.43c-1.36.29-1.43-1.17-1.89-1.88-.45-.7-1.16-1.31-1.67-1.93-.2-.24-.46-.31-.36-.72,2.78-.66,2.69,3.15,5.52,2.64.14,1.29-.8,1.24-1.59,1.89Z" fill="none" stroke="#000" stroke-miterlimit="10"/>
    <path d="M39.14,51.3c-2.64-.56-2.84-3.51-3.89-5.59-.58-1.97-4.3-6.75-2.95-8.33.34.01,1.88,2.85,2.17,3.35,1.5,2.85,4.84,7.39,4.67,10.57Z" fill="none" stroke="#000" stroke-miterlimit="10"/>
    <path d="M41.64,80.82c.09-.67.54-1.28.61-1.8.07-.52-.11-1.19.03-1.65.07-.22,1.63-1.38,1.89-1.11.05.95-.62,1.74-.91,2.57-.24.7-.39,2.99-1.37,2.71-.39-.11-.29-.44-.25-.72Z" fill="none" stroke="#000" stroke-miterlimit="10"/>
  </g>
</svg>