<svg xmlns="http://www.w3.org/2000/svg" width="42.26" height="42.51" viewBox="0 0 42.26 42.51">
  <g id="Layer_2" data-name="Layer 2">
    <g id="Layer_4" data-name="Layer 4">
      <g>
        <path d="M42.16,22.13A20.31,20.31,0,0,1,20.52,42.47C8.16,41.76.43,36.14,0,21.25-.39,7.12,10.91.6,20.92,0S43.53,9.88,42.16,22.13Zm-18.3.32-6.51-.52c-1.16,2.14-4.48,3.1-4.62,6.71,5.31,0,10.46,0,15.61,0a11.26,11.26,0,0,0,1.87-.41ZM12.75,14.68l-.4.9,8.7,5,9.62-5.68c-1.85-.1-2.66-.18-3.47-.18C22.38,14.67,17.57,14.68,12.75,14.68ZM33.06,27.79c-.26-4.15.51-7.56-.71-11.44l-7.71,3.7Zm-23.89-12c.24,4.81-.5,8.27.87,12.45l5.85-8.38Z"/>
        <path d="M23.86,22.45l6.35,5.76a11.26,11.26,0,0,1-1.87.41c-5.15,0-10.3,0-15.61,0,.14-3.61,3.46-4.57,4.62-6.71Z" fill="#fff"/>
        <path d="M12.75,14.68c4.82,0,9.63,0,14.45,0,.81,0,1.62.08,3.47.18l-9.62,5.68-8.7-5Z" fill="#fff"/>
        <path d="M33.06,27.79l-8.42-7.74,7.71-3.7C33.57,20.23,32.8,23.64,33.06,27.79Z" fill="#fff"/>
        <path d="M9.17,15.83l6.72,4.07L10,28.28C8.67,24.1,9.41,20.64,9.17,15.83Z" fill="#fff"/>
      </g>
    </g>
  </g>
</svg>
