<svg xmlns="http://www.w3.org/2000/svg" width="42.3" height="42.58" viewBox="0 0 42.3 42.58">
  <g id="Layer_2" data-name="Layer 2">
    <g id="Layer_4" data-name="Layer 4">
      <g>
        <path d="M42.22,22.85a11.31,11.31,0,0,1-2.75,8.92c-1.59,1.88-2.72,4.18-4.39,6-2.72,2.9-6.58,3.79-10.26,4.47A22.19,22.19,0,0,1,9.47,39.46C4,36.28,1,31.25.18,25A30.84,30.84,0,0,1,1.52,12.74a10.24,10.24,0,0,1,5.3-6.89c2.2-1.08,4.09-2.78,6.24-4A15.64,15.64,0,0,1,24.19.42C35.49,2.85,43,11.56,42.22,22.85ZM34.14,30.3c.24-.2.68-.41.68-.62.09-5.3.38-10.62.09-15.91-.22-4.16-3-6.37-7.21-6.48-3.82-.09-7.68.3-11.45-.1C10.21,6.54,6.94,11,6.4,16a50.31,50.31,0,0,0,0,11.44c.53,4.39,3.56,9.24,9.49,8.84,4-.27,8,0,12-.11s5.59-1.6,6.37-5.95Z"/>
        <path d="M34.21,30.23c-.78,4.35-2.29,5.84-6.37,5.95s-8-.16-12,.11c-5.93.4-9-4.45-9.49-8.84A50.31,50.31,0,0,1,6.4,16c.54-5,3.81-9.47,9.85-8.82,3.77.4,7.63,0,11.45.1,4.23.11,7,2.32,7.21,6.48.29,5.29,0,10.61-.09,15.91,0,.21-.44.42-.68.62,0-4.31,0-8.63,0-12.94,0-6.19-2.48-8.78-8.62-9-3-.13-6-.07-9,0-5,.09-7.82,2.38-8.26,7.33a78,78,0,0,0,0,11.94c.26,4.13,3.38,6.71,7.65,6.77,3.15,0,6.31-.14,9.45.06C29.18,34.66,32.13,33.45,34.21,30.23Z" fill="#fff"/>
        <path d="M34.21,30.23c-2.08,3.22-5,4.43-8.84,4.18-3.14-.2-6.3,0-9.45-.06-4.27-.06-7.39-2.64-7.65-6.77a78,78,0,0,1,0-11.94c.44-5,3.25-7.24,8.26-7.33,3-.06,6-.12,9,0,6.14.26,8.57,2.85,8.62,9,0,4.31,0,8.63,0,12.94Zm-6.16-8.46c0-2.73-3.82-7.16-6.33-7.32-3.86-.25-8.51,3.9-8.37,7.47.16,4.24,3.53,7.22,8,7A7,7,0,0,0,28.05,21.77Zm2.4-7.29-.89-2-1.87,1c.32.47.54,1.14,1,1.36S29.65,14.69,30.45,14.48Z"/>
        <path d="M28.05,21.77A7,7,0,0,1,21.3,29c-4.42.17-7.79-2.81-8-7-.14-3.57,4.51-7.72,8.37-7.47C24.23,14.61,28.07,19,28.05,21.77Zm-6.94,5.59c2.45,0,4.9-2.9,5.07-5.88.14-2.55-2.52-4.88-5.25-5s-5.67,2.6-5.71,5.14S18.26,27.32,21.11,27.36Z" fill="#fff"/>
        <path d="M30.45,14.48c-.8.21-1.43.6-1.78.42s-.66-.89-1-1.36l1.87-1Z" fill="#fff"/>
        <path d="M21.11,27.36c-2.85,0-5.93-3-5.89-5.7s2.84-5.23,5.71-5.14,5.39,2.41,5.25,5C26,24.46,23.56,27.39,21.11,27.36Z"/>
      </g>
    </g>
  </g>
</svg>
