<svg xmlns="http://www.w3.org/2000/svg" width="42.36" height="43.15" viewBox="0 0 42.36 43.15">
  <g id="Layer_2" data-name="Layer 2">
    <g id="Layer_4" data-name="Layer 4">
      <g>
        <path d="M42.26,22.35c.89,7-4.12,11.63-7.89,16.79C27.18,42.4,20.06,45.25,12.13,41c-2.93-1.57-6-2.64-8-5.61C0,29.24-.7,22.56.56,15.43,1.42,10.54,4.43,7.5,8.13,4.36c8.4-7.1,21.63-4.82,27.56,1.73C40.5,11.39,42.26,14.85,42.26,22.35ZM22.06,33c0-3.21-.1-5.87,0-8.52.1-2.24,1.1-3.29,2.83-3.41,2-.14,3.22.95,3.35,3.38s.06,5,.11,7.49c0,.29.26.57.55,1.18l4.2-.22c0-3.86.08-7.35,0-10.83-.08-2.7-1.15-4-3.74-4.48a7.64,7.64,0,0,0-3.94,0,8.08,8.08,0,0,1-5.71,0,5.63,5.63,0,0,0-2.25.26V33Zm-9.19,0V17.5l-3.4.21V32.93Zm0-24.47c-3.51,1.42-4.1,2.22-3.54,4.26s2.08,1.39,3.83,1Z"/>
        <path d="M22.06,33H17.47V17.76a5.63,5.63,0,0,1,2.25-.26,8.08,8.08,0,0,0,5.71,0,7.64,7.64,0,0,1,3.94,0C32,18.06,33,19.34,33.11,22c.1,3.48,0,7,0,10.83l-4.2.22c-.29-.61-.54-.89-.55-1.18-.05-2.5,0-5-.11-7.49S27,20.9,24.92,21c-1.73.12-2.73,1.17-2.83,3.41C22,27.1,22.06,29.76,22.06,33Z" fill="#fff"/>
        <path d="M12.87,32.93H9.47V17.71l3.4-.21Z" fill="#fff"/>
        <path d="M12.83,8.46l.29,5.24c-1.75.41-3.22,1.2-3.83-1S9.32,9.88,12.83,8.46Z" fill="#fff"/>
      </g>
    </g>
  </g>
</svg>
