<?xml version="1.0" encoding="UTF-8"?>
<svg id="Layer_1" data-name="Layer 1" xmlns="http://www.w3.org/2000/svg" width="139.05" height="69.43" viewBox="0 0 139.05 69.43">
  <path d="M41.88,63.26c-1.94.25-2.03-1.08-3.58-1.64l-1.9,3.64c-1.87-1.07-3.12-2.13-5.33-1.7.09,1.19.56,2.46,1.06,3.34,4.92-2.49,9.1-.63,17.34-2.73.86-.22,2.03.99,2.08,1.64s-.82,1.82-1.74,1.9c-6.56.57-12.9,1.62-19.58,1.7-5.48.06-10.76-1.03-16.28-1.25-2.42-.14-4.58-1.42-5.47-3.9-2.31-6.39-5.02-12.38-8.47-18.9,7.94-.96,15.39-.62,22.97.06l7.19,16.38c1.74-2.95,3.47-4.03,6.32-3.1,4.1-8.21,3.12-18.16,6.54-26.19,1.42-3.34,3.54-3.11,6.05-3.44,2.82-.38,5.74-1.67,8.55-2.44-.63,2-3.35.55-3.72,2.91l4.88-2.3c-1.73-4.75-2.82-15.69-.35-20.31C60.72,2.65,67.18-.18,71.92,0c6.36,5.35,8.93,13.01,10.26,20.66.84,4.87,3.18,9.1,3.24,14-.13,2.54,1.66,4.76,1.71,7.48.13,7.42.51,14.8,1.7,21.98l50.22-.28c-14.94,1.32-29.8.59-44.96,1.3,2.21.69,4.66,1.25,6.8,2.74l-11.64.13c-3.19.03-6.04.06-9.17.1l-18.23.24c-1.01.01-5.29-1.18-4.82-2.82.69-2.4,12.46-.95,15.21-1.24.69-.64,1.03-1.7,1.07-2.62-1.94,4.06-17.85,1.13-21.75.41-3.09-.57-2.9,1.66-3.97,2.24.63-4.94,1.12-9.45.56-14.33-1.07,3.74-2.4,7.2-3.86,10.77-.43,1.04.55,3.16-1.34,3.47-.19-.9.1-2.13-.38-2.41-.56-.33-2.11-.14-2.42.15l1.72,1.3ZM78.49,47.97c.36,3.19.32,5.78.97,8.71,1.63-1.42,1.1-3.35,1.15-5.12.09-3.67,1.86-7.13,1.71-10.78-.12-2.81.14-5.27,2.5-6.67-.56-4.77-2.56-8.88-3.34-13.38-1.29-7.42-3.74-14.59-9.52-19.93-4.37-.37-9.73,2.06-12.41,5.56-2.2,2.87-1.65,6.45-1.49,10.06.97-1.2.66-10.61,5.1-9.18,6.14,1.98,7.41,10.98,7.24,16.64l-.21,7.21c-.1,3.32.93,3.75,2.15,5.99,2.01,3.69,2.31,8.03,6.16,10.88ZM60.27,36.14l10.24.69c-1.97-4.95-.46-10.18-.71-15.3-.19-3.96-2.42-14.64-8-13.48-1.76.37-4.93,11.39-.96,17.39,1.43,2.16,4.32.28,6.71.15-2.07,1.92-6.2,2.3-7.87-.54-.12,1.08-.05,2.16.69,3.35l.35-1.3c.17-.62.64.12.64.35-.17,6.07-1.62,1.78-1.07,8.67ZM59.06,23.7c-.09-2.17-.46-3.75-.98-5.38-.57,2.04.02,3.98.98,5.38ZM55.02,30.63c1.19-1.48,3.77-.51,4.31-2.75-1.4.76-3.73.55-4.31,2.75ZM74.83,44.75c-2.11-3.02-1.77-6.42-3.47-8.16,1.68,1.72-11.5.26-11.81.24-4.36-.41-5.47-7.62-6.78-7.83-.93-.14-2.17.45-2.92.81-1.15.55-.22,1.72-.26,2.93l-.89,28.8c7.66-.31,13.89,2.79,23.33.85l5.87-12.59c.07-1.99-1.95-3.42-3.08-5.04ZM59.2,35.93l-.07-6.13c-1.45.08-2.91.53-3.73,1.66.35,2.02,1.74,3.9,3.81,4.47ZM43.14,60.97l-2.23-1.22c.83-.91,1.65-.25,2.79.33,2.43-4.59,3.69-9.66,4.67-14.72.26-1.36-.92-2.08-1.49-3.43.43.14,1.03.55,1.77,1.09l-.08-12.53c-7.93-4.87-7.27,23.46-11.43,28.53,1.35-.08,2.6-.62,3.32.82-1.74-.28-2.88-.54-3.68.84-.56.98-1.22,2.57-.66,3.58l1.5-2.97,5.51-.33ZM87.3,59.75l-.53-11.12c-.22-4.6-.33-9.22-2.52-13.45-1.9,2.22-.93,4.96-1.38,7.45-.94,5.28-2.05,10.35-1.98,15.97,2.37-.6,4.39.22,6.4,1.14ZM31.77,68.63c-2.59-7.97-5.9-15.26-9.31-22.71l-21.43-.17c3.21,6.22,5.91,12.1,8.2,18.46.64,1.79,2.38,3.08,4.22,3.16,6.05.25,11.75,1.56,18.33,1.25ZM98.27,67.32c-9.29-4.31-11.44.11-15.99-2.41-.18.14-.86.8-1.06.55l-.93-1.11c-.79.34-1.74.35-2.28-.3-.48-.58-.62-1.87-.04-2.49l2.89-3.04c-2.51-1.67-2.62-3.59-2.97-6.79l-4.86,13.18c-5.22.65-10.18-.45-15.59.51,1.84,2.6,5.27,2.43,7.74,2.39-1.8-.53-3.53-.18-4.83-1.5,6.01-.73,11.61.09,17.54.83-.27-1.45.32-1.35,1.54-1.33.77,0,1.1.81,1.53,1.73l17.33-.2ZM36.57,59.73c-.84-.52-1.72-.65-2.53-.5-.16,1.45-.31,3.1.65,4.11l.29-2.42c.06-.5.99-.8,1.59-1.2ZM83.45,65.12c1.59-1.08.66-3.25,2.14-4.22,2.01,1.03-.17,2.6-.22,4.58,1.39-.61,1.69-2.52,2.27-3.94-.37-1.52-2.63-2.07-3.99-2.4-1.77-.43-3.12.58-4.44,1.99,1.84.44,1.56,1.99,2.21,3.62.91-1.77.17-3.93,1.8-4.97,1.73,1.65-.3,3.37.24,5.34ZM33.33,63.09l-.34-3.86c-.9,1.24-1.13,2.85.34,3.86ZM79.56,63.84l-.87-2.1c-.3.48-.49,1.03-.38,1.5.1.43.69.88,1.25.6ZM32.36,68.83l17.17-1.71c.74-.07,1.31-.79,1.24-1.38-.05-.41-1.01-.95-1.52-.82-8.28,2.08-17.95.2-16.88,3.91ZM72.97,67.15c-2.98-.47-5.95-.46-9.15-.33,2.99.63,5.94.82,9.15.33Z"/>
</svg>