<?xml version="1.0" encoding="UTF-8"?>
<svg id="Layer_1" data-name="Layer 1" xmlns="http://www.w3.org/2000/svg" width="694" height="694" viewBox="0 0 694 694">
  <path d="M694,0v694H0V0h694ZM590.6,332.63c.75-1.67,1.81-2.89,1.44-5.09l-.09-182.99c-7.55-21.3-20.2-38.03-44.4-39.6-98.37.21-196.73-.14-295.09.1-32.69.08-71.81-2.66-103.94-.04-49.47,4.04-43.29,50.83-43.47,86.44-.21,41.73-.92,83.63,0,125,.23,10.42-1.58,18.66,5.52,27.47s22,11.59,28.88,1.02c5.92-9.09.25-17.19-.49-26.42l.04-175.05c.2-1.5.28-3.66,1.69-4.58.42-.27,8.87-.97,9.86-.95,108.49,1.87,217.86-1.63,326.06.94l77.44-.45c2.25.94,4.09,2.34,4,5,.86,40.31-.85,80.85-1.1,121-.09,15.4,2.1,32.2,1.09,47.09-.52,7.73-4.18,12.42-4.94,19.06-2.92,25.58,23.6,27.59,34.07,9.08.91-1.6,2.73-5.53,3.42-7.05ZM448.5,447h21c3.12,0,4.31,8.24,5,10,12.79,32.61,22.83,66.19,35.02,98.98,4.56,12.26,8.61,24.47,20.8,31.2s21.41,5.86,34.01-.35c16.02-7.9,21.52-20.72,27.46-36.54v-146.59c-3.13-2.83-3.1-6.73-4.96-10.05-5.63-10.04-18.08-13.37-28.53-8.85-11.71,5.07-10.99,21.54-25.02,26.98-7.18,2.79-23,2.97-30.84,2.25-2.63-.24-4.6-.37-6.48-2.52-9.03-21.79-15.61-44.3-23.49-66.51-11.41-32.18-22.36-64.92-34.16-96.84-15.65-42.3-30.9-76.97-82.77-80.23-48.84-3.07-75.67,20.95-92.03,64.07-21.43,56.49-38.46,117.49-61.04,172.96-1.92,4.72-2.68,8.44-7.96,9.02-6.96.76-29.6.15-35.52-2.49-12.79-5.72-10.99-25.96-27.75-28.24-15.6-2.12-25.11,8.35-26.28,23.2,2.43,45.1-3.1,93.35,0,138.08,1.79,25.86,19.39,41.7,43.63,47.37l311.71-.12c5.37-3.61,13.31-4.56,18.23-8.77,3.71-3.18,8.8-12.59,8.52-17.48-.34-5.95-8.15-25.49-10.57-32.51-9.32-27.05-20.07-53.67-29.26-80.77l1.29-5.25Z" fill="#fff"/>
  <path d="M448.5,447l-1.29,5.25c9.2,27.1,19.95,53.72,29.26,80.77,2.42,7.02,10.23,26.56,10.57,32.51.28,4.89-4.81,14.3-8.52,17.48-4.92,4.22-12.86,5.16-18.23,8.77l-311.71.12c-24.24-5.68-41.84-21.51-43.63-47.37-3.1-44.73,2.43-92.97,0-138.08,1.17-14.85,10.67-25.32,26.28-23.2,16.76,2.28,14.96,22.52,27.75,28.24,5.92,2.65,28.56,3.25,35.52,2.49,5.29-.58,6.04-4.3,7.96-9.02,22.58-55.47,39.61-116.47,61.04-172.96,16.36-43.12,43.19-67.14,92.03-64.07,51.87,3.26,67.12,37.93,82.77,80.23,11.81,31.92,22.75,64.65,34.16,96.84,7.88,22.22,14.46,44.72,23.49,66.51,1.88,2.15,3.85,2.28,6.48,2.52,7.84.72,23.66.53,30.84-2.25,14.03-5.45,13.31-21.92,25.02-26.98,10.45-4.52,22.9-1.19,28.53,8.85,1.86,3.32,1.82,7.22,4.95,10.05v146.59c-5.94,15.82-11.44,28.64-27.46,36.54-12.61,6.21-21.49,7.26-34.01.35s-16.24-18.94-20.8-31.2c-12.19-32.79-22.23-66.37-35.02-98.98-.69-1.76-1.88-10-5-10h-21ZM458.77,412.79c.83-.6,1.06-2.7.8-3.8-1.63-6.69-6.68-16.12-9.07-22.99-17.11-49.21-33.14-103.11-53.02-150.98-17.77-42.77-79.97-45.71-97.67-3.72-18.54,43.97-33.43,94.32-49.33,139.67-2.05,5.84-15.63,37.79-14.03,41,.4.8,1.4,1.56,2.26,1.81l154.84.25c3.95-.2,4.97-2.71,4.26-6.29-1.96-9.86-9.83-26.23-13.3-36.75-6.38-19.32-11.74-41.26-19.02-59.98-2.51-6.46-4.8-10.67-11.6-13.4-8.62-3.47-17.83.86-21.63,9.14-7.48,16.34-12.32,38.84-18.76,56.24-3.63,9.82-7.88,25.2-20.08,26.91-6.36.89-13.29-1.9-19.89-.94l-3.38-2.61,48.65-139.06c12.65-26.33,42.77-28.25,56.94-2.54l57.4,163.6c1.99,6.88,22.21,6.9,25.64,4.43ZM185.5,447h-44l-2.05,2.95.04,106.05,3.23,1.79c15.22-.54,30.52-.84,45.83-.84,3.14,0,5.86,1.14,8.95,1.14,4.48,0,9.23-1.95,14.02-1.08l1.99-1.01,36.56-107.35c-.53-2.31-23.57-2.46-25.58-.67-.87.78-2.89,5.9-3.53,7.47-5.83,14.23-9.83,31.15-15.27,45.73-3.05,8.18-8.84,26.71-15.93,31.05-6.52,3.99-12.39,4.42-19,.52-8.92-5.27-7.16-14.87-4.79-23.28,4.89-17.34,14.62-35.79,19.76-53.24.61-2.07,2.66-8.33-.22-9.22ZM446.89,556.89c.51-2.63.08-5.16-.57-7.71-3.67-14.39-11.82-31.65-16.82-46.18-5.29-15.38-9.51-31.39-15.47-46.53-1.1-2.8-2.7-8.37-5.74-9.26l-120.29.29-38.08,108.86,196.97.53ZM554.5,447h-45.5c-2.4,4.5.72,5.69,1.71,8.79,6.98,21.99,14.37,44.07,22.24,65.75,3.95,10.87,8.2,21.95,12.48,32.54,2.23,2.26,10.02-.87,11.07-3.08,1.5-3.14.26-17.68.46-22.54.92-23.15,3.04-52.11,1.08-75-.22-2.62-.38-5.88-3.54-6.46Z"/>
  <path d="M590.6,332.63c-.69,1.52-2.51,5.45-3.42,7.05-10.47,18.51-36.99,16.5-34.07-9.08.76-6.64,4.41-11.33,4.94-19.06,1.01-14.89-1.19-31.7-1.09-47.09.25-40.15,1.95-80.69,1.1-121,.09-2.66-1.75-4.06-4-5l-77.44.45c-108.2-2.57-217.57.93-326.06-.94-.98-.02-9.44.68-9.86.95-1.41.91-1.5,3.07-1.69,4.58l-.04,175.05c.74,9.22,6.41,17.32.49,26.42-6.88,10.57-21.88,7.65-28.88-1.02s-5.29-17.05-5.52-27.47c-.93-41.38-.22-83.27,0-125,.18-35.61-6-82.4,43.47-86.44,32.13-2.62,71.25.12,103.94.04,98.37-.24,196.73.1,295.09-.1,24.2,1.56,36.85,18.3,44.4,39.6l.09,182.99c.36,2.2-.69,3.42-1.44,5.09Z"/>
  <path d="M458.77,412.79c-3.43,2.48-23.65,2.46-25.64-4.43l-57.4-163.6c-14.17-25.71-44.28-23.79-56.94,2.54l-48.65,139.06,3.38,2.61c6.6-.96,13.53,1.83,19.89.94,12.2-1.71,16.46-17.09,20.08-26.91,6.44-17.41,11.27-39.91,18.76-56.24,3.79-8.28,13.01-12.61,21.63-9.14,6.8,2.74,9.08,6.94,11.6,13.4,7.28,18.72,12.64,40.67,19.02,59.98,3.47,10.52,11.34,26.89,13.3,36.75.71,3.59-.31,6.09-4.26,6.29l-154.84-.25c-.86-.25-1.86-1.02-2.26-1.81-1.6-3.21,11.99-35.17,14.03-41,15.9-45.35,30.79-95.7,49.33-139.67,17.7-42,79.9-39.05,97.67,3.72,19.89,47.87,35.91,101.77,53.02,150.98,2.39,6.87,7.44,16.3,9.07,22.99.27,1.1.04,3.2-.8,3.8Z" fill="#fff"/>
  <path d="M446.89,556.89l-196.97-.53,38.08-108.86,120.29-.29c3.05.88,4.64,6.45,5.74,9.26,5.96,15.14,10.17,31.15,15.47,46.53,5,14.52,13.14,31.78,16.82,46.18.65,2.56,1.08,5.08.57,7.71Z" fill="#fff"/>
  <path d="M185.5,447c2.88.89.83,7.16.22,9.22-5.13,17.46-14.87,35.9-19.76,53.24-2.37,8.41-4.13,18.02,4.79,23.28,6.61,3.9,12.48,3.47,19-.52,7.08-4.33,12.88-22.87,15.93-31.05,5.44-14.58,9.44-31.49,15.27-45.73.64-1.56,2.66-6.69,3.53-7.47,2.01-1.79,25.05-1.64,25.58.67l-36.56,107.35-1.99,1.01c-4.79-.87-9.54,1.07-14.02,1.08-3.09,0-5.82-1.14-8.95-1.14-15.31,0-30.61.3-45.83.84l-3.23-1.79-.04-106.05,2.05-2.95h44Z" fill="#fff"/>
  <path d="M554.5,447c3.16.57,3.32,3.84,3.54,6.46,1.96,22.89-.16,51.85-1.08,75-.19,4.87,1.05,19.4-.46,22.54-1.06,2.21-8.84,5.33-11.07,3.08-4.27-10.59-8.53-21.66-12.48-32.54-7.88-21.68-15.27-43.76-22.24-65.75-.99-3.1-4.11-4.3-1.71-8.79h45.5Z" fill="#fff"/>
</svg>