<svg xmlns="http://www.w3.org/2000/svg" width="42.19" height="42.38" viewBox="0 0 42.19 42.38">
  <g id="Layer_2" data-name="Layer 2">
    <g id="Layer_4" data-name="Layer 4">
      <g>
        <path d="M20,.23c9.79-1.31,19.62,7.48,21.52,15.63,1.52,6.54.67,12.51-3.43,17.87-4.73,6.2-11.16,9.55-18.82,8.43C7.92,40.52,1.2,35.53.06,23.76c-.25-2.59.35-5.25.55-7.88.46-5.88,4-9.46,8.75-12.41C12.82,1.31,16.18-.69,20,.23ZM33,27.61A21.76,21.76,0,0,1,28.73,27c-2-.74-3.7-1.26-5.24.88-.31.43-1.58.45-2.31.26-3.79-1-7.36-5.71-7.85-10.26L16.52,16c-1.57-2.21-.66-5.12-3.21-6.61-4.59,2.89-5,3.74-3.49,8.39.79,2.51,1.76,5,2.75,7.41A4.81,4.81,0,0,0,14,27.12a39.22,39.22,0,0,0,10.31,5.64C28.79,34.44,31.38,32.91,33,27.61Z"/>
        <path d="M33,27.61c-1.59,5.3-4.18,6.83-8.65,5.15A39.22,39.22,0,0,1,14,27.12a4.81,4.81,0,0,1-1.44-1.95c-1-2.44-2-4.9-2.75-7.41-1.49-4.65-1.1-5.5,3.49-8.39,2.55,1.49,1.64,4.4,3.21,6.61l-3.19,1.89c.49,4.55,4.06,9.29,7.85,10.26.73.19,2,.17,2.31-.26,1.54-2.14,3.25-1.62,5.24-.88A21.76,21.76,0,0,0,33,27.61Z" fill="#fff"/>
      </g>
    </g>
  </g>
</svg>
