<svg id="Layer_1" data-name="Layer 1" xmlns="http://www.w3.org/2000/svg" width="1080" height="1080" viewBox="0 0 1080 1080">
  <path d="M540.13,547.43c-7.76,2.12-14.32,3.8-20.79,5.79-1,.33-2,2-2.38,3.18-.82,2.5-1,5.25-2,7.67-.49,1.21-2.19,1.94-3.34,2.89-.83-1.3-2.32-2.6-2.33-3.91a26.86,26.86,0,0,1,1.3-7.82c1-3.37.65-6.08-2-8.61a56.78,56.78,0,0,1-5.81-6.83,2.78,2.78,0,0,1-.27-2.58,2.74,2.74,0,0,1,2.58-.58c2.23,1.09,4.24,2.61,6.45,3.76,1.4.73,3.24,1.86,4.46,1.48,6.74-2.11,13.35-4.62,20.58-7.21-1.57-2.54-2.66-4.55-4-6.41-3.25-4.62-6.68-9.12-9.88-13.77a14.13,14.13,0,0,1-2.53-5.33c-.26-1.58.11-4,1.16-4.86s3.51-.89,4.94-.3a49.54,49.54,0,0,1,18.26,13.55c1.93,2.22,3.1,4,6.87,2.37,4.44-2,3.15,2.53,3.82,5.33l5.51-1.64c4-1.15,7.92-2.4,11.93-3.41a5.34,5.34,0,0,1,6.4,2.63c1.58,2.71.39,5-1.48,6.7a29.6,29.6,0,0,1-7,4.56c-3.43,1.62-7.06,2.8-10.17,4l2.85,6.17-7.24,3.26c-.94,6.41-1.88,13.45-3.05,20.46a24.48,24.48,0,0,1-2.27,7.58c-.79,1.47-3,3.19-4.35,3.06a5.85,5.85,0,0,1-4-3.63,68.71,68.71,0,0,1-1.28-11.33C540.71,558.56,540.48,553.46,540.13,547.43Z"/>
</svg>
