<svg xmlns="http://www.w3.org/2000/svg" width="929.8" height="482.73" viewBox="0 0 929.8 482.73">
  <g id="Layer_2" data-name="Layer 2">
    <g id="Layer_3" data-name="Layer 3">
      <path d="M.51,205a178.87,178.87,0,0,0,50-2c9.79-1.82,9.59-2.7,22-5,20.65-3.81,28.06-2.65,46-6,11.93-2.22,13.94-4.69,27-7s13.41-.81,20-3c14.17-4.69,14.64-12.24,28-16,4.6-1.29,14.22-4,21,1,9.19,6.76,6.61,22.79,6,26-.87,4.64-2.7,9.45-12,22a271.84,271.84,0,0,1-27,31c-18.6,18.74-24.57,21.55-30,23-4.23,1.14-14,3.78-19-1-7.85-7.57,1.79-28.73,6-38,3.76-8.25,13.2-26.49,35-45,6.55-5.56,34.53-29.3,45-22,7.85,5.48,1.5,25.31,7,27,4.62,1.42,12.17-11.55,13-11s-9.63,16.28-18,36c-10.39,24.53-8.29,33.95-7,38,2,6.25,7,15.11,14,16,3.62.47,5.61-1.49,13-5,9.74-4.61,11.36-3.63,19-7,11.68-5.14,12.52-9.47,27-19,7-4.62,7.95-4.33,20-11,24.55-13.56,36.82-20.35,38-27,1.81-10.15-12-13.44-29-39-9.3-14-18.35-27.66-16-44,1.56-10.77,7.69-20,13-28a119,119,0,0,1,15-18,256.23,256.23,0,0,1,38-32c33.28-22.38,60.82-29.16,69-31,16.63-3.72,24.35-2.9,31,0,11.21,4.9,19.36,15.6,22,27,3.24,14-2.58,25.36-7,34-3.89,7.63-7,10.53-21,26-23.86,26.39-21.06,24.86-33,37-12.91,13.14-19.38,19.72-30,28-13.83,10.8-25.33,25.11-41,33-1.23.63-4.88,2.4-5,5-.19,4.18,15.38,14.7,18,17,16,14,25.24,32.54,28,43,9.28,35.1-11,60.56-15,68-11.57,21.51-30.71,33-69,56-27.48,16.51-53.92,28-79,24-6.14-1-12.34-2.89-16-8-8.17-11.4,1.9-31,6-39,12.09-23.52,30-37.22,42-46,39.52-28.86,59.29-43.3,93-57,59.33-24.09,70.61-9.27,91-31,19-20.26,31.35-29.5,56-48a8.86,8.86,0,0,1,6-2c5.94.66,11.1,9.86,11,18-.06,5.16-2.21,8.52-7,16-16,25-15.9,24.89-16,25-20,26-30.44,39.58-42,38-6.82-.92-13.41-7.05-16-14-10.25-27.52,43.66-64.56,60-86a8.36,8.36,0,0,1,4-3c5.7-1.81,14.68,3.62,18,11,1.67,3.7,1.18,6.26,3,7,3.53,1.43,9.27-6.54,10-6,1.22.91-17.54,20.44-23,46-.72,3.4-6.27,30.59,4,37,17,10.63,67.41-42,77-52a372.14,372.14,0,0,0,73-111s9.29-13.53,17-48c.5-2.21,1.4-6.62-1-10-3.16-4.46-10.52-5.6-16-4-3.52,1-6.39,3.22-13,12-8.75,11.64-12,18-12,18-15.11,29.66-20.61,32.81-36,67a552.73,552.73,0,0,0-29,82c-3.91,14.61-9.2,36.76-2,61,3.59,12.08,7.71,16,11,18,13,7.81,32.25-3.16,46-11,31.44-17.89,58.89-48.66,65-63a16.4,16.4,0,0,1,5-7c5-3.85,10.8-3,21-3,6,0,12-.9,18-1,11.12-.18,59.54-2.37,188-9" fill="none" stroke="#000" stroke-miterlimit="10" stroke-width="11"/>
      <path d="M187.51,478a945.12,945.12,0,0,1,97-50,932.86,932.86,0,0,1,220-67,915.17,915.17,0,0,1,144-13" fill="none" stroke="#000" stroke-miterlimit="10" stroke-width="11"/>
    </g>
  </g>
</svg>
