<svg xmlns="http://www.w3.org/2000/svg" width="937.92" height="500.99" viewBox="0 0 937.92 500.99">
  <g id="Signature-Visible">
    <path d="M277,447.23a11.58,11.58,0,0,0-1.71-.81c-6.36-1.75-11.85-5.2-17.17-8.9a18.79,18.79,0,0,1-6.72-9.15,32.05,32.05,0,0,1-.82-19.11,79.61,79.61,0,0,1,13.59-28.62,133.2,133.2,0,0,1,16.6-18.88c4.49-4.19,9.43-7.91,14.23-11.76a82.35,82.35,0,0,0,12.65-12,15,15,0,0,1,3.47-2.91c6.77-4.41,13.46-8.94,20.39-13.07q15.34-9.14,31-17.77c14.63-8.11,29.9-14.92,45.27-21.51a49.15,49.15,0,0,0,10.47-6.7,5.46,5.46,0,0,0-.45-1c-7.09-9.27-14.08-18.64-22.75-26.56-2.35-2.15-4.88-4.13-7.41-6.07a11,11,0,0,0-3.19-1.59,4.21,4.21,0,0,0-3.67.52c-5.29,3.31-10.62,6.53-15.91,9.84a85.44,85.44,0,0,0-12.2,9.27A69.13,69.13,0,0,1,343.5,267c-4.84,3.12-9.83,6-14.67,9.1C318.08,283,307.44,290.1,296.64,297a129.05,129.05,0,0,1-11.86,6.29c-3.85,1.91-8.1,2.44-12.29,3a51.46,51.46,0,0,1-6.44.53,15.57,15.57,0,0,1-10.89-4.28c-4.77-4.26-7.06-9.74-8.07-15.92-.76-4.65-.16-9.24.27-13.85.33-3.58.55-7.16.79-10.75a8.58,8.58,0,0,0-.17-1.58l-.61-.44a7.65,7.65,0,0,1-.78,1.44c-9,10.28-18.26,20.36-28.25,29.71-5.89,5.51-11.78,11.06-18.86,15.11a69,69,0,0,1-13.76,6.17,18.33,18.33,0,0,1-13.78-.8c-5.47-2.62-8.74-7.07-8.71-13,.08-12.16,1.8-24,8.33-34.75,4.72-7.78,9-15.84,13.38-23.83a71.37,71.37,0,0,1,10.5-14.83c.68-.72,1.25-1.56,2.11-2.64a13.66,13.66,0,0,0-1.61,0c-17.18,2.91-34.34,5.9-51.53,8.71-5.83.95-11.73,1.5-17.6,2.16-8,.9-16,1.87-23.8,4.22a91.8,91.8,0,0,1-20.29,3.48c-7.49.51-15,1-22.47,1.48-5.1.36-10.19.84-15.29,1.23-2.49.19-4.78-.28-6.45-2.39a7.49,7.49,0,0,0-1.07-.95v-4.8c1.7-2.42,4.14-3,6.93-3,5.68.06,11.36.16,17-.06,6.79-.26,13.57-.63,20.32-1.32,8.74-.9,17.43-2.22,26.16-3.27,7.69-.92,15.41-1.64,23.1-2.6q14.39-1.78,28.74-3.83a23.15,23.15,0,0,0,5.75-1.63c8.15-3.48,16.7-5.43,25.37-7,4.16-.78,8.32-1.63,12.42-2.67,6.27-1.58,11.91-4.61,17.31-8.09,3.56-2.3,7-4.74,10.68-6.9a27.89,27.89,0,0,1,14.28-4.35c8.93-.05,20.58,5.56,22.91,19l.7,3.88c1-.79,1.81-1.41,2.6-2a27.84,27.84,0,0,1,3.25-2.44,6.11,6.11,0,0,1,8.11,2.51,3,3,0,0,1,0,2.06A100.89,100.89,0,0,1,279.43,224c-3.55,7.6-7.28,15.13-11.07,22.61-4.42,8.7-7.07,18-9.32,27.4a9.61,9.61,0,0,0-.19,3.81,80.8,80.8,0,0,0,2,9.11,15.25,15.25,0,0,0,2.41,4.37,8,8,0,0,0,6.15,3.27,23.87,23.87,0,0,0,10.34-1.66,81.63,81.63,0,0,0,16.06-8c6.43-4.06,12.74-8.28,19.26-12.17,8-4.79,16.33-9.13,24.33-14,9.79-5.91,19.38-12.15,29.06-18.23,3.37-2.12,5.8-5.21,8.78-8.12-.71-.84-1.26-1.58-1.91-2.24-4.16-4.2-8.38-8.35-12.5-12.6-9.4-9.68-17.64-20.21-23.82-32.29-7.25-14.16-8.65-28.89-5.17-44.27,1.86-8.21,5.38-15.72,9.44-23a129,129,0,0,1,18.07-24.71c6.27-6.79,13.38-12.59,20.5-18.4a279.81,279.81,0,0,1,27.54-19.6,153.24,153.24,0,0,1,32.9-15.54c9.31-3.15,18.72-6,28.17-8.72,4.13-1.17,8.48-1.57,12.72-2.32.39-.07.77-.21,1.15-.31h10.56c7,1.31,13.42,4.12,19.69,7.35,12.38,6.35,18.6,16.82,20.29,30.33.84,6.73-.6,13.22-2.25,19.63a80.41,80.41,0,0,1-17.37,32.51c-3.12,3.63-6.55,7-9.71,10.61-5.1,5.83-10.2,11.68-15.12,17.66a264.67,264.67,0,0,1-22,23.39q-13.9,13.22-28.15,26.07a244.85,244.85,0,0,1-22.51,17.52c-6.37,4.55-12.37,9.61-18.54,14.44a12.4,12.4,0,0,1-1.07.67c1.1,1,1.94,1.82,2.79,2.6s1.76,1.63,2.63,2.46c6,5.67,12,11.24,17.86,17a60.4,60.4,0,0,1,10.34,14.06c2.79,5.11,4.82,5.79,10.39,4.06q7.77-2.43,15.69-4.41a210.3,210.3,0,0,0,25.8-8.24,13.12,13.12,0,0,0,6.57-5.64c2.23-3.6,4.43-7.23,6.94-10.64a194.69,194.69,0,0,1,16.34-18.81c2.88-3,5.63-6.13,8.64-9,5.06-4.81,10.86-8.4,17.83-9.81a36.33,36.33,0,0,1,16.62.73,14.64,14.64,0,0,1,10.08,8.52c.52,1.16,1.08,2.3,1.75,3.73a15.24,15.24,0,0,0,2.1-1.07c3-2.16,6.09-1.93,9.27-.33a1.83,1.83,0,0,1,1.21,2.26,36.5,36.5,0,0,1-2.6,9.19c-3.68,7.54-7.33,15.1-10.88,22.71s-6.36,15.19-7.48,23.44a57.46,57.46,0,0,0-.17,12.91,5.69,5.69,0,0,0,.12.7c1.32,6.36,5.6,9,11.68,6.78a102.29,102.29,0,0,0,12.2-5.57,24.87,24.87,0,0,0,8.84-7.6,32.54,32.54,0,0,1,6.55-6.29c2-1.6,3.9-3.3,5.78-5a14.09,14.09,0,0,0,4.33-7.87c4.62-23.81,12.63-46.55,21.6-69,7.36-18.42,15.14-36.66,24.54-54.14,5.48-10.2,11.54-20.1,17.32-30.14a228,228,0,0,1,17.38-26.43c3-3.81,6.07-7.44,10.11-10.15A26,26,0,0,1,713.23,65c7.15-.45,13.44,2.93,15.42,10.56a44.23,44.23,0,0,1,.24,23c-2.59,9.5-5.63,18.86-10.25,27.59-6.42,12.16-12.71,24.4-19.66,36.24-5.66,9.64-12.12,18.82-18.39,28.09-6.45,9.53-12.89,19.09-19.74,28.33-4.6,6.22-9.87,11.95-14.93,17.82-6.09,7.09-12.29,14.1-18.42,21.16a28.23,28.23,0,0,0-6.74,17.35c-.37,6.21-.65,12.46-.43,18.67a155.57,155.57,0,0,0,1.79,17.62c1.46,9.63,7.81,14.26,17.28,14.78a50.48,50.48,0,0,0,28.46-7.12A158.48,158.48,0,0,0,703,291.36a242.48,242.48,0,0,0,21.32-26.21c1.55-2.13,3-4.33,4.6-6.44a36,36,0,0,1,21.72-13.55c6.31-1.38,12.72-2.36,19.12-3.35a166.85,166.85,0,0,1,24.54-2.47c3.67,0,7.33,0,11-.05a3.61,3.61,0,0,0,2-.54c4.28-3.23,9.15-3.35,14.2-3.06,3.49.21,7,.06,10.52.06.4,0,.79-.08,1.19-.1l16.54-.58c9.18-.34,18.37-.64,27.55-1,6.06-.25,12.12-.64,18.19-.92,7.74-.35,15.49-.65,23.23-1,7.5-.32,15-.55,22.51-1,8.13-.48,16.26-1.15,24.38-1.72.72-.06,1.44,0,2.16-.1a7.5,7.5,0,0,1,7.63,3.92v3.84c-.28.39-.58.77-.83,1.18-1.44,2.44-3.5,3.29-6.39,3.3-10.95,0-21.9.3-32.85.5-6.79.13-13.58.31-20.37.48l-18.7.48c-5.27.15-10.54.3-15.81.48-9.18.31-18.37.61-27.55,1-6.94.27-13.89.51-20.82,1-6.46.43-12.89,1.1-19.33,1.72-6.92.66-13.83,1.34-20.74,2.08-6.28.67-12.54,1.43-18.81,2.16-4.36.51-8.72,1.09-13.09,1.55a31.52,31.52,0,0,0-17.18,7.32A104.29,104.29,0,0,0,732,270.76c-7.18,8.05-14,16.4-21.12,24.52a115.15,115.15,0,0,1-16.54,15.28c-5.5,4.25-10.92,8.62-16.57,12.67a78.33,78.33,0,0,1-32.54,14,49.58,49.58,0,0,1-15.75.42c-10.23-1.52-16.78-7.59-20.48-17a68.4,68.4,0,0,1-4.28-28c.12-2.95.47-5.89.7-8.83,0-.52,0-1.05,0-2.11l-3.15,2.39c-7.51,5.7-15,11.49-22.56,17.07a29.32,29.32,0,0,1-13,5.28c-8.6,1.33-15.19-1.69-19.93-8.9a24.84,24.84,0,0,1-4.24-11.1,33,33,0,0,1,.33-6.41c.25-2.61.62-5.22.89-7.83a7,7,0,0,0-.28-1.68,18.67,18.67,0,0,0-1.41,1.68,85.93,85.93,0,0,1-11.55,14.36c-4.5,4.65-9,9.29-13.68,13.77a57.72,57.72,0,0,1-16.44,11.07,21.06,21.06,0,0,1-11.66,2,16,16,0,0,1-13.16-12.65,24.54,24.54,0,0,1,.25-11.18c1.77-7.29,3.73-14.54,5.61-21.81.27-1.05.53-2.1.94-3.68-14.54,4.24-28.5,8.37-42.57,12.61.18,1,.26,1.71.43,2.39,1.69,6.83,3.33,13.67,5.1,20.47a47.67,47.67,0,0,1,.38,22.31c-2.12,10-6.19,19.14-11.14,28a162.43,162.43,0,0,1-20.54,28c-5.6,6.31-12.1,11.61-18.42,17.13-3.79,3.3-7.41,6.86-11.49,9.78-5.31,3.82-11,7.12-16.52,10.64-4.46,2.83-8.86,5.75-13.37,8.47a144.71,144.71,0,0,1-32.07,13.86c-11.23,3.48-22.64,6.31-34.13,8.81a13.9,13.9,0,0,0-2,.76ZM393.11,223.14c.95-.72,1.71-1.28,2.45-1.87,6.39-5.06,12.65-10.3,19.19-15.14,7.86-5.82,15.29-12.12,22.68-18.48,7-6.05,14.07-12.08,20.35-18.93q8.28-9,16.61-17.95c5.5-5.91,11-11.85,15.34-18.7,5.35-8.37,11.62-16,17.93-23.69A151.8,151.8,0,0,0,517,96.25a35.09,35.09,0,0,0,6-20.65A36.25,36.25,0,0,0,514.91,54a19.52,19.52,0,0,0-7.44-5.9,48.39,48.39,0,0,0-6.31-2.27c-7-2-14.07-1.83-21.17-1a115.22,115.22,0,0,0-33.45,9c-7.6,3.37-15.13,6.9-22.65,10.43a87.72,87.72,0,0,0-18.74,11.55c-4.07,3.36-8.23,6.61-12.42,9.8-7.64,5.83-15.05,11.88-21.47,19.08s-12.58,14.93-17.35,23.48c-6.25,11.23-8.5,23.17-5.73,35.87a55.47,55.47,0,0,0,8.59,19.4,168.31,168.31,0,0,0,31.48,35.32C389.84,220.1,391.33,221.54,393.11,223.14Zm29.74,61c-.91.4-1.71.73-2.49,1.08-3.56,1.63-7.14,3.22-10.68,4.9-6.21,2.95-12.49,5.76-18.54,9-4.58,2.44-8.75,5.62-13.26,8.18-11.33,6.43-22.73,12.74-34.15,19a239.58,239.58,0,0,0-48.63,36c-6,5.64-11.67,11.62-17.22,17.69a146.62,146.62,0,0,0-10.19,12.72c-4.35,6-6.34,13-7.6,20.25-1.22,7,1.47,12.63,7.78,16A27.19,27.19,0,0,0,281,432.17c4.14,0,8.28-.5,12.41-.89A62.59,62.59,0,0,0,309.12,428c5.11-1.85,10.15-3.89,15.18-5.94,5.84-2.39,11.72-4.71,17.44-7.38a159.27,159.27,0,0,0,24.39-14.29c14.42-10.17,27.82-21.48,39.38-34.88A137.71,137.71,0,0,0,425,335.75c4.85-10,6-20.44,4.51-31.31a73.68,73.68,0,0,0-5.62-18.52A15,15,0,0,0,422.85,284.18ZM717.48,89.28c0-1,.06-1.92,0-2.87-.43-5.85-3.44-7.68-8.72-5.22a23.4,23.4,0,0,0-9.2,7.13c-3.13,4.24-6.09,8.61-8.92,13.05-7.9,12.41-15.33,25.1-22.12,38.15-6.42,12.36-12.08,25.06-17.37,37.91C646,190,640.93,202.62,636.23,215.35c-3.63,9.82-6.67,19.85-10,29.79a3.73,3.73,0,0,0-.39,1.37,6.92,6.92,0,0,0,.56,1.64c.47-.2.95-.36,1.4-.6.19-.1.3-.36.45-.55q7.2-8.82,14.41-17.63c8.94-10.88,17.23-22.24,25.23-33.82a335.41,335.41,0,0,0,21.16-34c4.53-8.63,8.84-17.38,13.07-26.16a239.57,239.57,0,0,0,13-33C716.47,98.15,717.61,93.82,717.48,89.28ZM177,293.23c0,.25.06.65.09,1,.53,5.71,6.11,8.71,11,5.84,3.17-1.85,6.27-3.84,9.32-5.89a103.23,103.23,0,0,0,18.92-16.87c7.11-7.9,14.38-15.66,21.51-23.54,8.63-9.54,14.31-20.73,18.1-32.94a12.78,12.78,0,0,0,.08-8.48c-1.07-2.89-3-5-6.18-5.33a16.1,16.1,0,0,0-5.44.44,55.42,55.42,0,0,0-7.27,2.44,35.88,35.88,0,0,0-10.61,6A244.16,244.16,0,0,0,205,237.46c-10.34,11.75-17.77,25.35-25,39.08C177.28,281.72,176.88,287.37,177,293.23Zm318.32,4.29a8.71,8.71,0,0,0,6.33-2c5.18-4.25,10.53-8.34,15.45-12.89a203.77,203.77,0,0,0,26.3-30.11c3-4.14,6-8.28,8.09-13a48.45,48.45,0,0,0,4.18-19.54c0-2.82-1.12-4.1-3.61-4.57a4.71,4.71,0,0,0-5.53,2.75c-2.08,5.18-5.58,9.29-9.5,13.1-3.1,3-6.34,5.86-9.39,8.91a58.46,58.46,0,0,1-10.55,8.25l-9,5.57a14.1,14.1,0,0,0-5.07,5.33c-2.58,4.77-5.25,9.51-7.68,14.37a46.5,46.5,0,0,0-4.67,19.42C490.57,297.1,491,297.5,495.33,297.52Z" transform="translate(-37.44 -14.8)"/>
    <path d="M210.88,510.1c6.06-8.76,15.51-11.26,23.57-15.8,18.78-10.6,38.74-18.77,58.12-28.11,14.57-7,30.14-11.54,44.32-19.07,16.33-8.66,34.26-12.84,51-20,24.13-10.35,50.08-14.53,74.7-22.94,24.14-8.25,49.23-11.23,74-16.06,7.62-1.49,15.74-1.2,22.93-3.72a73.55,73.55,0,0,1,15.3-3.32c7.18-.93,14.34-2.06,21.54-2.74,12.64-1.2,25.29-2.67,38-3,13-.35,26,.34,39.07.91,8.63.37,17.24,1.28,25.84,2.09a78.79,78.79,0,0,1,10.25,1.57c5.5,1.25,5.47,1.38,7.9,8.79-10.95-.92-21.36-1.76-31.77-2.68-3.48-.31-7-1.12-10.43-1.16-12-.14-24-.27-35.94,0-10.26.24-20.56.58-30.75,1.73-14.68,1.65-29.31,3.9-43.9,6.25-15.57,2.5-31.16,5-46.58,8.26-17,3.62-33.87,8-50.75,12.3-8.78,2.22-17.79,4-26.15,7.36-20.06,8-41.53,11.87-61.27,20.3-18.05,7.72-36.6,14.12-54.59,21.94-13.29,5.78-26.64,11.45-39.76,17.62-15.33,7.21-30.86,14.18-45.46,22.7-6.9,4-13.92,7.61-21.07,11C214.47,516.42,213.63,515.77,210.88,510.1Z" transform="translate(-37.44 -14.8)"/>
  </g>
  <g id="signature-path">
    <path d="M39.51,237a178.7,178.7,0,0,0,50-2c9.79-1.82,9.59-2.7,22-5,20.65-3.81,28.06-2.65,46-6,11.93-2.22,13.94-4.69,27-7s13.41-.81,20-3c14.17-4.69,14.64-12.24,28-16,4.6-1.29,14.22-4,21,1,9.19,6.76,6.61,22.79,6,26-.87,4.64-2.7,9.45-12,22a271.6,271.6,0,0,1-27,31c-18.6,18.74-24.57,21.55-30,23-4.23,1.14-14,3.78-19-1-7.85-7.57,1.79-28.73,6-38,3.76-8.25,13.2-26.49,35-45,6.55-5.56,34.53-29.3,45-22,7.85,5.48,1.5,25.31,7,27,4.62,1.42,12.17-11.55,13-11s-9.63,16.28-18,36c-10.39,24.53-8.29,33.95-7,38,2,6.25,7,15.11,14,16,3.62.47,5.61-1.49,13-5,9.74-4.61,11.36-3.63,19-7,11.68-5.14,12.52-9.47,27-19,7-4.62,7.95-4.33,20-11,24.55-13.56,36.82-20.35,38-27,1.81-10.15-12-13.44-29-39-9.3-14-18.35-27.66-16-44,1.56-10.77,7.69-20,13-28a119.1,119.1,0,0,1,15-18,256.48,256.48,0,0,1,38-32c33.28-22.38,60.82-29.16,69-31,16.63-3.72,24.35-2.9,31,0,11.21,4.9,19.36,15.6,22,27,3.24,14-2.58,25.36-7,34-3.89,7.63-7,10.53-21,26-23.86,26.39-21.06,24.86-33,37-12.91,13.14-19.38,19.72-30,28-13.83,10.8-25.33,25.11-41,33-1.23.63-4.88,2.4-5,5-.19,4.18,15.38,14.7,18,17,16,14,25.24,32.54,28,43,9.28,35.1-11,60.56-15,68-11.57,21.51-30.71,33-69,56-27.48,16.51-53.92,28-79,24-6.14-1-12.34-2.89-16-8-8.17-11.4,1.9-31,6-39,12.09-23.52,30-37.22,42-46,39.52-28.86,59.29-43.3,93-57,59.33-24.09,70.61-9.27,91-31,19-20.26,31.35-29.5,56-48a8.9,8.9,0,0,1,6-2c5.94.66,11.1,9.86,11,18-.06,5.16-2.21,8.52-7,16-16,25-15.9,24.89-16,25-20,26-30.44,39.58-42,38-6.82-.92-13.41-7.05-16-14-10.25-27.52,43.66-64.56,60-86a8.41,8.41,0,0,1,4-3c5.7-1.81,14.68,3.62,18,11,1.67,3.7,1.18,6.26,3,7,3.53,1.43,9.27-6.54,10-6,1.22.91-17.54,20.44-23,46-.72,3.4-6.27,30.59,4,37,17,10.63,67.41-42,77-52a372.22,372.22,0,0,0,73-111s9.29-13.53,17-48c.5-2.21,1.4-6.62-1-10-3.16-4.46-10.52-5.6-16-4-3.52,1-6.39,3.22-13,12-8.75,11.64-12,18-12,18-15.11,29.66-20.61,32.81-36,67a552.62,552.62,0,0,0-29,82c-3.91,14.61-9.2,36.76-2,61,3.59,12.08,7.71,16,11,18,13,7.81,32.25-3.16,46-11,31.44-17.89,58.89-48.66,65-63a16.36,16.36,0,0,1,5-7c5-3.85,10.8-3,21-3,6,0,12-.9,18-1,11.12-.18,59.54-2.37,188-9" transform="translate(-37.44 -14.8)" fill="none" stroke="#000" stroke-miterlimit="10" stroke-width="11"/>
  </g>
  <g id="underline-path">
    <path d="M210.88,511A1052.68,1052.68,0,0,1,717.5,375.25" transform="translate(-37.44 -14.8)" fill="none" stroke="#000" stroke-miterlimit="10" stroke-width="11"/>
  </g>
  <g id="accent-path">
    <path d="M934,32c-2.89-.12-7.12-.29-12.22-.45C904.67,31,866.19,29.76,866,32c0,.49,1.71,1.24,11.56,3.13,31.16,6,50.35,5.41,50.44,6.87.15,2.54-57.45,11.3-59,5-.86-3.51,15.69-11.68,60-27" transform="translate(-37.44 -14.8)" fill="none" stroke="#000" stroke-miterlimit="10" stroke-width="11"/>
  </g>
</svg>
