<?xml version="1.0" encoding="utf-8"?>
<!-- Generator: Adobe Illustrator 25.2.0, SVG Export Plug-In . SVG Version: 6.00 Build 0)  -->
<svg version="1.1" xmlns="http://www.w3.org/2000/svg" xmlns:xlink="http://www.w3.org/1999/xlink" x="0px" y="0px"
	 viewBox="0 0 1006.6 570.6" style="enable-background:new 0 0 1006.6 570.6;" xml:space="preserve">
<style type="text/css">
	.st0{display:none;}
	.st1{display:inline;}
	.st2{display:inline;fill:none;stroke:#000000;stroke-width:11;stroke-miterlimit:10;}
	.st3{fill:none;stroke:#000000;stroke-width:11;stroke-miterlimit:10;}
</style>
<g id="Signature-Visible" class="st0">
	<path class="st1" d="M277,447.2c-0.6-0.3-1.1-0.6-1.7-0.8c-6.4-1.8-11.8-5.2-17.2-8.9c-3.2-2.2-5.3-5.5-6.7-9.1
		c-2.3-6.3-2.4-12.7-0.8-19.1c2.5-10.5,7.2-19.9,13.6-28.6c5-6.8,10.5-13.2,16.6-18.9c4.5-4.2,9.4-7.9,14.2-11.8
		c4.6-3.7,8.9-7.5,12.7-12c0.9-1.2,2.2-2.1,3.5-2.9c6.8-4.4,13.5-8.9,20.4-13.1c10.2-6.1,20.6-12,31-17.8
		c14.6-8.1,29.9-14.9,45.3-21.5c3.9-1.7,7.1-4.1,10.5-6.7c-0.2-0.4-0.3-0.8-0.4-1c-7.1-9.3-14.1-18.6-22.7-26.6
		c-2.4-2.2-4.9-4.1-7.4-6.1c-0.9-0.7-2.1-1.2-3.2-1.6c-1.2-0.4-2.5-0.2-3.7,0.5c-5.3,3.3-10.6,6.5-15.9,9.8
		c-4.3,2.7-8.4,5.8-12.2,9.3c-2.8,2.5-6,4.5-9.1,6.5c-4.8,3.1-9.8,6-14.7,9.1c-10.8,6.9-21.4,14-32.2,20.9
		c-3.8,2.4-7.8,4.3-11.9,6.3c-3.9,1.9-8.1,2.4-12.3,3c-2.1,0.3-4.3,0.5-6.4,0.5c-4.2,0.1-7.8-1.5-10.9-4.3
		c-4.8-4.3-7.1-9.7-8.1-15.9c-0.8-4.6-0.2-9.2,0.3-13.9c0.3-3.6,0.6-7.2,0.8-10.7c0-0.5-0.1-1.1-0.2-1.6c-0.2-0.1-0.4-0.3-0.6-0.4
		c-0.3,0.5-0.4,1-0.8,1.4c-9,10.3-18.3,20.4-28.2,29.7c-5.9,5.5-11.8,11.1-18.9,15.1c-4.4,2.5-8.9,4.7-13.8,6.2
		c-4.7,1.4-9.3,1.4-13.8-0.8c-5.5-2.6-8.7-7.1-8.7-13c0.1-12.2,1.8-24,8.3-34.8c4.7-7.8,9-15.8,13.4-23.8
		c2.9-5.4,6.3-10.4,10.5-14.8c0.7-0.7,1.3-1.6,2.1-2.6c-0.9,0-1.2-0.1-1.6,0c-17.2,2.9-34.3,5.9-51.5,8.7c-5.8,1-11.7,1.5-17.6,2.2
		c-8,0.9-16,1.9-23.8,4.2c-6.6,2-13.4,3-20.3,3.5c-7.5,0.5-15,0.9-22.5,1.5c-5.1,0.4-10.2,0.8-15.3,1.2c-2.5,0.2-4.8-0.3-6.5-2.4
		c-0.3-0.4-0.7-0.6-1.1-0.9c0-1.6,0-3.2,0-4.8c1.7-2.4,4.1-3,6.9-3c5.7,0.1,11.4,0.2,17-0.1c6.8-0.3,13.6-0.6,20.3-1.3
		c8.7-0.9,17.4-2.2,26.2-3.3c7.7-0.9,15.4-1.6,23.1-2.6c9.6-1.2,19.2-2.5,28.7-3.8c2-0.3,3.9-0.8,5.8-1.6c8.1-3.5,16.7-5.4,25.4-7
		c4.2-0.8,8.3-1.6,12.4-2.7c6.3-1.6,11.9-4.6,17.3-8.1c3.6-2.3,7-4.7,10.7-6.9c4.4-2.6,9.1-4.3,14.3-4.4c8.9,0,20.6,5.6,22.9,19
		c0.2,1.2,0.4,2.3,0.7,3.9c1-0.8,1.8-1.4,2.6-2c1.1-0.8,2.1-1.8,3.3-2.4c2.8-1.5,6.7-0.3,8.1,2.5c0.3,0.6,0.2,1.4,0,2.1
		c-1.2,3.4-2.2,6.9-3.7,10.1c-3.5,7.6-7.3,15.1-11.1,22.6c-4.4,8.7-7.1,18-9.3,27.4c-0.3,1.2-0.4,2.6-0.2,3.8c0.5,3.1,1.1,6.1,2,9.1
		c0.5,1.6,1.4,3,2.4,4.4c1.5,2.1,3.6,3,6.2,3.3c3.6,0.3,7-0.5,10.3-1.7c5.7-2,11-4.8,16.1-8c6.4-4.1,12.7-8.3,19.3-12.2
		c8-4.8,16.3-9.1,24.3-14c9.8-5.9,19.4-12.1,29.1-18.2c3.4-2.1,5.8-5.2,8.8-8.1c-0.7-0.8-1.3-1.6-1.9-2.2
		c-4.2-4.2-8.4-8.4-12.5-12.6c-9.4-9.7-17.6-20.2-23.8-32.3c-7.2-14.2-8.6-28.9-5.2-44.3c1.9-8.2,5.4-15.7,9.4-23
		c5-9,11.1-17.2,18.1-24.7c6.3-6.8,13.4-12.6,20.5-18.4c8.7-7.1,18-13.6,27.5-19.6c10.3-6.5,21.3-11.6,32.9-15.5
		c9.3-3.1,18.7-6,28.2-8.7c4.1-1.2,8.5-1.6,12.7-2.3c0.4-0.1,0.8-0.2,1.2-0.3c3.5,0,7,0,10.6,0c7,1.3,13.4,4.1,19.7,7.3
		c12.4,6.4,18.6,16.8,20.3,30.3c0.8,6.7-0.6,13.2-2.2,19.6c-3.1,12.2-9.2,23-17.4,32.5c-3.1,3.6-6.5,7-9.7,10.6
		c-5.1,5.8-10.2,11.7-15.1,17.7c-6.8,8.3-14.3,16-22,23.4c-9.3,8.8-18.7,17.5-28.2,26.1c-7.1,6.4-14.7,12-22.5,17.5
		c-6.4,4.5-12.4,9.6-18.5,14.4c-0.3,0.2-0.5,0.3-1.1,0.7c1.1,1,1.9,1.8,2.8,2.6c0.9,0.8,1.8,1.6,2.6,2.5c6,5.7,12,11.2,17.9,17
		c4.2,4.1,7.5,8.9,10.3,14.1c2.8,5.1,4.8,5.8,10.4,4.1c5.2-1.6,10.4-3.1,15.7-4.4c8.8-2.2,17.4-4.9,25.8-8.2c2.9-1.2,5-3,6.6-5.6
		c2.2-3.6,4.4-7.2,6.9-10.6c4.9-6.7,10.6-12.8,16.3-18.8c2.9-3,5.6-6.1,8.6-9c5.1-4.8,10.9-8.4,17.8-9.8c5.6-1.1,11.1-0.7,16.6,0.7
		c4.7,1.2,8.1,4.1,10.1,8.5c0.5,1.2,1.1,2.3,1.8,3.7c0.8-0.4,1.5-0.6,2.1-1.1c3-2.2,6.1-1.9,9.3-0.3c1,0.5,1.4,1.1,1.2,2.3
		c-0.6,3.1-1.2,6.3-2.6,9.2c-3.7,7.5-7.3,15.1-10.9,22.7c-3.5,7.5-6.4,15.2-7.5,23.4c-0.6,4.3-0.6,8.6-0.2,12.9
		c0,0.2,0.1,0.5,0.1,0.7c1.3,6.4,5.6,9,11.7,6.8c4.2-1.5,8.2-3.5,12.2-5.6c3.5-1.8,6.5-4.3,8.8-7.6c1.8-2.5,4.2-4.4,6.6-6.3
		c2-1.6,3.9-3.3,5.8-5c2.3-2.1,3.7-4.8,4.3-7.9c4.6-23.8,12.6-46.5,21.6-69c7.4-18.4,15.1-36.7,24.5-54.1
		c5.5-10.2,11.5-20.1,17.3-30.1c5.3-9.2,10.9-18.1,17.4-26.4c2.9-3.8,6.1-7.4,10.1-10.1c3.9-2.6,8.2-4.4,12.9-4.7
		c7.2-0.5,13.4,2.9,15.4,10.6c2,7.6,2.3,15.3,0.2,23c-2.6,9.5-5.6,18.9-10.3,27.6c-6.4,12.2-12.7,24.4-19.7,36.2
		c-5.7,9.6-12.1,18.8-18.4,28.1c-6.4,9.5-12.9,19.1-19.7,28.3c-4.6,6.2-9.9,11.9-14.9,17.8c-6.1,7.1-12.3,14.1-18.4,21.2
		c-4.3,5-6.4,10.9-6.7,17.3c-0.4,6.2-0.6,12.5-0.4,18.7c0.2,5.9,0.9,11.8,1.8,17.6c1.5,9.6,7.8,14.3,17.3,14.8
		c10.2,0.6,19.7-2.1,28.5-7.1c13-7.5,24.7-16.8,35.1-27.7c7.8-8.2,14.7-17.1,21.3-26.2c1.5-2.1,3-4.3,4.6-6.4
		c5.5-7.3,12.9-11.6,21.7-13.5c6.3-1.4,12.7-2.4,19.1-3.4c8.1-1.3,16.3-2.4,24.5-2.5c3.7,0,7.3,0,11,0c0.7,0,1.5-0.1,2-0.5
		c4.3-3.2,9.2-3.4,14.2-3.1c3.5,0.2,7,0.1,10.5,0.1c0.4,0,0.8-0.1,1.2-0.1c5.5-0.2,11-0.4,16.5-0.6c9.2-0.3,18.4-0.6,27.6-1
		c6.1-0.3,12.1-0.6,18.2-0.9c7.7-0.4,15.5-0.6,23.2-1c7.5-0.3,15-0.5,22.5-1c8.1-0.5,16.3-1.1,24.4-1.7c0.7-0.1,1.4,0,2.2-0.1
		c3.4-0.3,5.9,1,7.6,3.9c0,1.3,0,2.6,0,3.8c-0.3,0.4-0.6,0.8-0.8,1.2c-1.4,2.4-3.5,3.3-6.4,3.3c-11,0-21.9,0.3-32.8,0.5
		c-6.8,0.1-13.6,0.3-20.4,0.5c-6.2,0.2-12.5,0.3-18.7,0.5c-5.3,0.1-10.5,0.3-15.8,0.5c-9.2,0.3-18.4,0.6-27.5,1
		c-6.9,0.3-13.9,0.5-20.8,1c-6.5,0.4-12.9,1.1-19.3,1.7c-6.9,0.7-13.8,1.3-20.7,2.1c-6.3,0.7-12.5,1.4-18.8,2.2
		c-4.4,0.5-8.7,1.1-13.1,1.6c-6.5,0.7-12.3,3.2-17.2,7.3c-3.8,3.2-7.5,6.7-10.9,10.5c-7.2,8.1-14,16.4-21.1,24.5
		c-5,5.7-10.6,10.7-16.5,15.3c-5.5,4.2-10.9,8.6-16.6,12.7c-9.8,7-20.6,12-32.5,14c-5.2,0.9-10.5,1.2-15.8,0.4
		c-10.2-1.5-16.8-7.6-20.5-17c-3.5-9-4.7-18.4-4.3-28c0.1-2.9,0.5-5.9,0.7-8.8c0-0.5,0-1,0-2.1c-1.3,1-2.2,1.7-3.1,2.4
		c-7.5,5.7-15,11.5-22.6,17.1c-3.8,2.8-8.2,4.5-13,5.3c-8.6,1.3-15.2-1.7-19.9-8.9c-2.2-3.4-3.8-7.1-4.2-11.1
		c-0.2-2.1,0.1-4.3,0.3-6.4c0.2-2.6,0.6-5.2,0.9-7.8c0-0.4-0.1-0.9-0.3-1.7c-0.6,0.8-1.1,1.2-1.4,1.7c-3.3,5.3-7.3,9.9-11.6,14.4
		c-4.5,4.7-9,9.3-13.7,13.8c-4.8,4.6-10.3,8.3-16.4,11.1c-3.7,1.7-7.6,2.5-11.7,2c-6.5-0.9-11.7-6-13.2-12.7
		c-0.8-3.8-0.6-7.5,0.2-11.2c1.8-7.3,3.7-14.5,5.6-21.8c0.3-1,0.5-2.1,0.9-3.7c-14.5,4.2-28.5,8.4-42.6,12.6c0.2,1,0.3,1.7,0.4,2.4
		c1.7,6.8,3.3,13.7,5.1,20.5c1.9,7.4,2,14.8,0.4,22.3c-2.1,10-6.2,19.1-11.1,28c-5.7,10.2-12.8,19.3-20.5,28
		c-5.6,6.3-12.1,11.6-18.4,17.1c-3.8,3.3-7.4,6.9-11.5,9.8c-5.3,3.8-11,7.1-16.5,10.6c-4.5,2.8-8.9,5.8-13.4,8.5
		c-10.1,6.1-20.9,10.4-32.1,13.9c-11.2,3.5-22.6,6.3-34.1,8.8c-0.7,0.2-1.3,0.5-2,0.8C283,447.2,280,447.2,277,447.2z M393.1,223.1
		c0.9-0.7,1.7-1.3,2.5-1.9c6.4-5.1,12.6-10.3,19.2-15.1c7.9-5.8,15.3-12.1,22.7-18.5c7-6.1,14.1-12.1,20.4-18.9
		c5.5-6,11.1-12,16.6-17.9c5.5-5.9,11-11.9,15.3-18.7c5.4-8.4,11.6-16,17.9-23.7c3.2-3.9,6.5-7.9,9.4-12.1c4.1-6.2,6.2-13.2,6-20.6
		c-0.2-8.1-3.1-15.3-8.1-21.6c-2-2.6-4.5-4.6-7.4-5.9c-2-0.9-4.2-1.6-6.3-2.3c-7-2-14.1-1.8-21.2-1c-11.6,1.4-22.8,4.3-33.4,9
		c-7.6,3.4-15.1,6.9-22.7,10.4c-6.7,3.1-13,6.8-18.7,11.5c-4.1,3.4-8.2,6.6-12.4,9.8c-7.6,5.8-15,11.9-21.5,19.1
		c-6.5,7.3-12.6,14.9-17.3,23.5c-6.3,11.2-8.5,23.2-5.7,35.9c1.5,7.1,4.6,13.5,8.6,19.4c8.9,13.2,19.2,25.1,31.5,35.3
		C389.8,220.1,391.3,221.5,393.1,223.1z M422.8,284.2c-0.9,0.4-1.7,0.7-2.5,1.1c-3.6,1.6-7.1,3.2-10.7,4.9c-6.2,2.9-12.5,5.8-18.5,9
		c-4.6,2.4-8.7,5.6-13.3,8.2c-11.3,6.4-22.7,12.7-34.1,19c-17.8,9.8-33.9,22.1-48.6,36c-6,5.6-11.7,11.6-17.2,17.7
		c-3.7,4-7,8.3-10.2,12.7c-4.4,6-6.3,13-7.6,20.2c-1.2,7,1.5,12.6,7.8,16c4.1,2.2,8.6,3.2,13.2,3.2c4.1,0,8.3-0.5,12.4-0.9
		c5.3-0.5,10.6-1.4,15.7-3.2c5.1-1.9,10.1-3.9,15.2-5.9c5.8-2.4,11.7-4.7,17.4-7.4c8.6-4,16.7-8.8,24.4-14.3
		c14.4-10.2,27.8-21.5,39.4-34.9c7.8-9.1,14.3-19,19.5-29.8c4.9-10,6-20.4,4.5-31.3c-0.9-6.5-3.1-12.6-5.6-18.5
		C423.7,285.4,423.3,284.9,422.8,284.2z M717.5,89.3c0-1,0.1-1.9,0-2.9c-0.4-5.8-3.4-7.7-8.7-5.2c-3.6,1.7-6.8,3.9-9.2,7.1
		c-3.1,4.2-6.1,8.6-8.9,13.1c-7.9,12.4-15.3,25.1-22.1,38.2c-6.4,12.4-12.1,25.1-17.4,37.9c-5.2,12.6-10.2,25.2-14.9,37.9
		c-3.6,9.8-6.7,19.8-10,29.8c-0.2,0.5-0.4,0.9-0.4,1.4c0,0.6,0.4,1.1,0.6,1.6c0.5-0.2,1-0.4,1.4-0.6c0.2-0.1,0.3-0.4,0.5-0.5
		c4.8-5.9,9.6-11.8,14.4-17.6c8.9-10.9,17.2-22.2,25.2-33.8c7.6-11,14.9-22.1,21.2-34c4.5-8.6,8.8-17.4,13.1-26.2
		c5.1-10.7,9.5-21.7,13-33C716.5,98.2,717.6,93.8,717.5,89.3z M177,293.2c0,0.3,0.1,0.7,0.1,1.1c0.5,5.7,6.1,8.7,11,5.8
		c3.2-1.9,6.3-3.8,9.3-5.9c7.1-4.8,13.2-10.5,18.9-16.9c7.1-7.9,14.4-15.7,21.5-23.5c8.6-9.5,14.3-20.7,18.1-32.9
		c0.9-2.8,1.1-5.7,0.1-8.5c-1.1-2.9-3-5-6.2-5.3c-1.8-0.2-3.7,0-5.4,0.4c-2.5,0.6-4.9,1.5-7.3,2.4c-3.8,1.5-7.5,3.3-10.6,6
		c-7.6,6.7-14.8,13.9-21.5,21.5c-10.3,11.7-17.8,25.4-25,39.1C177.3,281.7,176.9,287.4,177,293.2z M495.3,297.5
		c2.1,0.2,4.4-0.4,6.3-2c5.2-4.3,10.5-8.3,15.5-12.9c9.8-9.1,18.4-19.3,26.3-30.1c3-4.1,6-8.3,8.1-13c2.8-6.2,4.2-12.7,4.2-19.5
		c0-2.8-1.1-4.1-3.6-4.6c-2.4-0.5-4.6,0.5-5.5,2.8c-2.1,5.2-5.6,9.3-9.5,13.1c-3.1,3-6.3,5.9-9.4,8.9c-3.2,3.2-6.7,5.9-10.6,8.2
		c-3,1.9-6,3.7-9,5.6c-2.2,1.3-3.9,3.1-5.1,5.3c-2.6,4.8-5.3,9.5-7.7,14.4c-3.1,6.1-4.4,12.6-4.7,19.4
		C490.6,297.1,491,297.5,495.3,297.5z"/>
	<path class="st1" d="M210.9,510.1c6.1-8.8,15.5-11.3,23.6-15.8c18.8-10.6,38.7-18.8,58.1-28.1c14.6-7,30.1-11.5,44.3-19.1
		c16.3-8.7,34.3-12.8,51-20c24.1-10.4,50.1-14.5,74.7-22.9c24.1-8.2,49.2-11.2,74-16.1c7.6-1.5,15.7-1.2,22.9-3.7
		c5-1.6,10.1-2.8,15.3-3.3c7.2-0.9,14.3-2.1,21.5-2.7c12.6-1.2,25.3-2.7,38-3c13-0.4,26,0.3,39.1,0.9c8.6,0.4,17.2,1.3,25.8,2.1
		c3.4,0.3,6.9,0.8,10.2,1.6c5.5,1.2,5.5,1.4,7.9,8.8c-11-0.9-21.4-1.8-31.8-2.7c-3.5-0.3-7-1.1-10.4-1.2c-12-0.1-24-0.3-35.9,0
		c-10.3,0.2-20.6,0.6-30.8,1.7c-14.7,1.6-29.3,3.9-43.9,6.2c-15.6,2.5-31.2,5-46.6,8.3c-17,3.6-33.9,8-50.8,12.3
		c-8.8,2.2-17.8,4-26.1,7.4c-20.1,8-41.5,11.9-61.3,20.3c-18,7.7-36.6,14.1-54.6,21.9c-13.3,5.8-26.6,11.5-39.8,17.6
		c-15.3,7.2-30.9,14.2-45.5,22.7c-6.9,4-13.9,7.6-21.1,11C214.5,516.4,213.6,515.8,210.9,510.1z"/>
</g>
<g id="signature-path" class="st0">
	<path class="st2" d="M39.5,237c16.7,1.7,33.5,1,50-2c9.8-1.8,9.6-2.7,22-5c20.7-3.8,28.1-2.6,46-6c11.9-2.2,13.9-4.7,27-7
		s13.4-0.8,20-3c14.2-4.7,14.6-12.2,28-16c4.6-1.3,14.2-4,21,1c9.2,6.8,6.6,22.8,6,26c-0.9,4.6-2.7,9.4-12,22
		c-8.2,11-17.2,21.4-27,31c-18.6,18.7-24.6,21.5-30,23c-4.2,1.1-14,3.8-19-1c-7.8-7.6,1.8-28.7,6-38c3.8-8.2,13.2-26.5,35-45
		c6.6-5.6,34.5-29.3,45-22c7.8,5.5,1.5,25.3,7,27c4.6,1.4,12.2-11.6,13-11c0.8,0.6-9.6,16.3-18,36c-10.4,24.5-8.3,34-7,38
		c2,6.2,7,15.1,14,16c3.6,0.5,5.6-1.5,13-5c9.7-4.6,11.4-3.6,19-7c11.7-5.1,12.5-9.5,27-19c7-4.6,8-4.3,20-11
		c24.5-13.6,36.8-20.4,38-27c1.8-10.1-12-13.4-29-39c-9.3-14-18.4-27.7-16-44c1.6-10.8,7.7-20,13-28c4.4-6.5,9.4-12.5,15-18
		c11.6-11.9,24.3-22.6,38-32c33.3-22.4,60.8-29.2,69-31c16.6-3.7,24.4-2.9,31,0c11.2,4.9,19.4,15.6,22,27c3.2,14-2.6,25.4-7,34
		c-3.9,7.6-7,10.5-21,26c-23.9,26.4-21.1,24.9-33,37c-12.9,13.1-19.4,19.7-30,28c-13.8,10.8-25.3,25.1-41,33c-1.2,0.6-4.9,2.4-5,5
		c-0.2,4.2,15.4,14.7,18,17c16,14,25.2,32.5,28,43c9.3,35.1-11,60.6-15,68c-11.6,21.5-30.7,33-69,56c-27.5,16.5-53.9,28-79,24
		c-6.1-1-12.3-2.9-16-8c-8.2-11.4,1.9-31,6-39c12.1-23.5,30-37.2,42-46c39.5-28.9,59.3-43.3,93-57c59.3-24.1,70.6-9.3,91-31
		c19-20.3,31.3-29.5,56-48c1.7-1.4,3.8-2.1,6-2c5.9,0.7,11.1,9.9,11,18c-0.1,5.2-2.2,8.5-7,16c-16,25-15.9,24.9-16,25
		c-20,26-30.4,39.6-42,38c-6.8-0.9-13.4-7-16-14c-10.2-27.5,43.7-64.6,60-86c1-1.4,2.4-2.4,4-3c5.7-1.8,14.7,3.6,18,11
		c1.7,3.7,1.2,6.3,3,7c3.5,1.4,9.3-6.5,10-6c1.2,0.9-17.5,20.4-23,46c-0.7,3.4-6.3,30.6,4,37c17,10.6,67.4-42,77-52
		c30.8-32.3,55.5-69.9,73-111c0,0,9.3-13.5,17-48c0.5-2.2,1.4-6.6-1-10c-3.2-4.5-10.5-5.6-16-4c-3.5,1-6.4,3.2-13,12
		c-8.8,11.6-12,18-12,18c-15.1,29.7-20.6,32.8-36,67c-11.8,26.5-21.5,53.9-29,82c-3.9,14.6-9.2,36.8-2,61c3.6,12.1,7.7,16,11,18
		c13,7.8,32.2-3.2,46-11c31.4-17.9,58.9-48.7,65-63c1-2.7,2.7-5.2,5-7c5-3.9,10.8-3,21-3c6,0,12-0.9,18-1c11.1-0.2,59.5-2.4,188-9"
		/>
</g>
<g id="underline-path" class="st0">
	<path class="st2" d="M210.9,511c34.4-19.3,70-36.8,106.6-52.2c77.2-32.7,158.5-56.2,241.8-70c52.3-8.5,105.2-13,158.3-13.6"/>
</g>
<g id="accent-path">
	<path class="st3" d="M934,32c-2.9-0.1-7.1-0.3-12.2-0.4C904.7,31,866.2,29.8,866,32c0,0.5,1.7,1.2,11.6,3.1
		c31.2,6,50.4,5.4,50.4,6.9c0.1,2.5-57.4,11.3-59,5c-0.9-3.5,15.7-11.7,60-27"/>
</g>
</svg>
