<?xml version="1.0" encoding="utf-8"?>
<!-- Generator: Adobe Illustrator 25.2.0, SVG Export Plug-In . SVG Version: 6.00 Build 0)  -->
<svg version="1.1" id="Layer_1" xmlns="http://www.w3.org/2000/svg" xmlns:xlink="http://www.w3.org/1999/xlink" x="0px" y="0px"
	 viewBox="0 0 94 89.8" style="enable-background:new 0 0 94 89.8;" xml:space="preserve">
<style type="text/css">
	.st0{fill:none;stroke:#000000;stroke-miterlimit:10;}
</style>
<g id="Layer_2_1_">
	<g id="Turbin">
		<path class="st0" d="M41.7,45c-3.7,0.8-7.9,5.5-10.8,8.8c0,0-8.8,11.4-10.8,21.6c6.9-0.8,10.6-3.5,16-10.4
			C42.5,57.3,47.1,47,47.1,47C64.2,48,79.2,31.3,79.2,31.3c2.1-0.4-3.6-1.5-17.2,1.9c-11,2.8-17.2,6.3-17.2,6.3
			c-3.7-6.6-7.5-10.3-11.6-14.1C29.9,21.6,18.9,13.6,15,13.7c0,0,10.2,16.7,14.1,20.6C34.5,42.5,41.7,45,41.7,45z"/>
	</g>
</g>
</svg>
