<?xml version="1.0" encoding="utf-8"?>
<!-- Generator: Adobe Illustrator 25.2.0, SVG Export Plug-In . SVG Version: 6.00 Build 0)  -->
<svg version="1.1" id="Layer_1" xmlns="http://www.w3.org/2000/svg" xmlns:xlink="http://www.w3.org/1999/xlink" x="0px" y="0px"
	 viewBox="0 0 1024.4 93.6" style="enable-background:new 0 0 1024.4 93.6;" xml:space="preserve">
<style type="text/css">
	.st0{fill:none;stroke:#000000;stroke-miterlimit:10;}
</style>
<g id="Layer_2_1_">
	<g id="Turbin">
		<path class="st0" d="M925.4,82.7C868.5,83,811.6,81,754.7,82.3c-59.4-0.8-119.3,1.2-178.2,0.8c-0.1,0-0.1,0-0.2,0
			c-14.5-3.3-26.5-8.4-41.3-9.5c-0.4,0-0.8-0.4-0.8-0.8c-1.7-24.2-1.5-35.9-3.6-60.1c0.6,0-1.5-3-2.9-2.8c-1.7,0.3-2.5,2.4-2.5,2.9
			c0.9,22.7-1,35.1,0,58.7c0,0,0,0.1,0,0.1c-1.2,22.7-4.5,17.4-22.4,18.6c0,0,0,0,0,0c-21.4-2-40.7-8.8-61.7-11c-0.1,0-0.1,0-0.2,0
			c-145.3,8.6-293.2,2.3-439.6,5.6c-0.5,0-0.9,0.4-0.9,0.9l0,0c0,0.5,0.4,0.9,0.9,0.9c136.6-3.9,273.8,1.4,410.1-3.2
			c0.1,0,0.2,0,0.3,0c23-8.1,47,0.9,69.8,5.4c0,0,0,0,0.1,0c9.2,1,48.4,11.4,47.6-3c-1.8-23.2-2.5-46.5-2.2-69.8
			c0-1.1,1.7-1.2,1.7,0c1.3,18.1,0.8,36.7,2.4,54.9c0.2,4.9,0.6,5.8,4,6c21.4,0.4,39.9,11.9,61.5,8.8c0,0,0.1,0,0.1,0
			c100.4-3,201.4-1.9,302-0.7c41.7-1.1,83.5-2.3,125.2-1.3v-0.8C991.4,79.4,958.2,81.4,925.4,82.7z"/>
	</g>
</g>
</svg>
